<svg width="300" height="290" viewBox="0 0 300 290" fill="none" xmlns="http://www.w3.org/2000/svg">
<rect width="300" height="290" rx="10" fill="white"/>
<path d="M43.3302 259.619H30.7246C30.9114 246.63 30.7246 220.16 30.7246 218.198C31.621 213.183 36.047 211.93 38.0078 211.93H50.6134C53.7508 212.584 55.6557 215.291 56.2159 216.563L71.0625 252.534H72.7433V211.93H85.0687V259.619H65.46C61.5196 259.619 59.8575 254.987 59.5774 254.442L45.2911 219.288H43.3302V259.619Z" fill="#DBCFCF"/>
<path d="M43.3302 76.4581H30.7246C30.9114 63.8449 30.7246 38.1422 30.7246 36.237C31.621 31.3681 36.047 30.1509 38.0078 30.1509H50.6134C53.7508 30.7859 55.6557 33.4144 56.2159 34.6493L71.0625 69.5782H72.7433V30.1509H85.0687V76.4581H65.46C61.5196 76.4581 59.8575 71.9597 59.5774 71.4304L45.2911 37.2954H43.3302V76.4581Z" fill="#DBCFCF"/>
<path d="M228.1 259.619H215.494C215.681 246.63 215.494 220.16 215.494 218.198C216.391 213.183 220.817 211.93 222.777 211.93H235.383C238.52 212.584 240.425 215.291 240.985 216.563L255.832 252.534H257.513V211.93H269.838V259.619H250.23C246.289 259.619 244.627 254.987 244.347 254.442L230.061 219.288H228.1V259.619Z" fill="#DBCFCF"/>
<path d="M228.1 76.4581H215.494C215.681 63.8449 215.494 38.1422 215.494 36.237C216.391 31.3681 220.817 30.1509 222.777 30.1509H235.383C238.52 30.7859 240.425 33.4144 240.985 34.6493L255.832 69.5782H257.513V30.1509H269.838V76.4581H250.23C246.289 76.4581 244.627 71.9597 244.347 71.4304L230.061 37.2954H228.1V76.4581Z" fill="#DBCFCF"/>
<path d="M31.0869 211.93L269.114 211.93" stroke="#DBCFCF" stroke-width="1.28071" stroke-linecap="round" stroke-dasharray="3.84 3.84"/>
<path d="M30 76.6001H270" stroke="#DBCFCF" stroke-width="1.28071" stroke-linecap="round" stroke-dasharray="3.84 3.84"/>
<path d="M85.0498 258.926L85.0498 30.0003" stroke="#DBCFCF" stroke-width="1.28071" stroke-linecap="round" stroke-dasharray="3.84 3.84"/>
<path d="M215.353 258.926L215.353 30.0003" stroke="#DBCFCF" stroke-width="1.28071" stroke-linecap="round" stroke-dasharray="3.84 3.84"/>
<rect x="31.0614" y="30.4979" width="238.441" height="229.004" stroke="#DBCFCF" stroke-width="0.995778"/>
<path d="M214.962 151.542V122.954V122.919C214.962 114.076 210.01 105.944 202.006 101.504L163.062 80.0549C155.058 75.6513 145.154 75.6513 137.15 80.0549H137.113L98.1694 101.504L156.547 134.496L181.119 113.721V198.667L202.006 187.232C210.01 182.828 214.962 174.66 214.962 165.818V151.542Z" fill="url(#paint0_linear_2243_46033)"/>
<path d="M85.2119 137.192V165.78V165.815C85.2119 174.658 90.1636 182.79 98.1682 187.229L137.111 208.679C145.116 213.083 155.019 213.083 163.024 208.679H163.061L202.786 186.803L143.627 154.238L119.055 175.013V90.067L98.1682 101.502C90.1636 105.941 85.2119 114.074 85.2119 122.916V137.192Z" fill="url(#paint1_linear_2243_46033)"/>
<defs>
<linearGradient id="paint0_linear_2243_46033" x1="88.6023" y1="84.3785" x2="178.395" y2="147.329" gradientUnits="userSpaceOnUse">
<stop stop-color="#2D1B40"/>
<stop offset="1" stop-color="#E60039"/>
</linearGradient>
<linearGradient id="paint1_linear_2243_46033" x1="209.828" y1="219.709" x2="109.46" y2="131.642" gradientUnits="userSpaceOnUse">
<stop stop-color="#2D1B40"/>
<stop offset="0.2692" stop-color="#6E113E"/>
<stop offset="0.5125" stop-color="#A20A3C"/>
<stop offset="0.7231" stop-color="#C7053A"/>
<stop offset="0.8926" stop-color="#DE0139"/>
<stop offset="1" stop-color="#E60039"/>
</linearGradient>
</defs>
</svg>
