<svg width="24" height="25" viewBox="0 0 24 25" fill="none" xmlns="http://www.w3.org/2000/svg">
<path fill-rule="evenodd" clip-rule="evenodd" d="M14.6159 3.27323L9.25219 8.63696L7.21037 8.09964L13.3264 1.98365C15.7681 -0.458093 19.7269 -0.458092 22.1687 1.98365C24.6104 4.4254 24.6104 8.38425 22.1687 10.826L21.2107 11.7839L19.1689 11.2466L20.8791 9.53642C22.6087 7.80689 22.6087 5.00276 20.8791 3.27323C19.1496 1.54369 16.3455 1.54369 14.6159 3.27323ZM3.67343 11.6366L5.71526 12.1739L3.12088 14.7683C1.39135 16.4978 1.39135 19.3019 3.12088 21.0315C4.85042 22.761 7.65454 22.761 9.38408 21.0315L15.632 14.7836L17.6738 15.3209L10.6736 22.321C8.2319 24.7628 4.27305 24.7628 1.83131 22.321C-0.610438 19.8793 -0.610436 15.9204 1.83131 13.4787L3.67343 11.6366ZM16.6239 8.81804C16.98 8.46193 16.98 7.88457 16.6239 7.52846C16.2678 7.17236 15.6904 7.17236 15.3343 7.52846L7.37623 15.4866C7.02012 15.8427 7.02012 16.42 7.37623 16.7761C7.73233 17.1322 8.30969 17.1322 8.6658 16.7761L16.6239 8.81804Z" fill="black"/>
</svg>
