<svg width="31" height="30" viewBox="0 0 31 30" fill="none" xmlns="http://www.w3.org/2000/svg">
<path d="M11.332 0H19.332L18.332 2.5L19.332 5H11.332L12.332 2.5L11.332 0Z" fill="#2B1B40"/>
<path fill-rule="evenodd" clip-rule="evenodd" d="M10.332 5H0.832031V26C0.832031 28.2091 2.62289 30 4.83203 30H25.832C28.0412 30 29.832 28.2091 29.832 26V5H20.332V7H10.332V5Z" fill="#2B1B40"/>
<path fill-rule="evenodd" clip-rule="evenodd" d="M15.332 22.27C17.0325 22.27 18.411 20.8664 18.411 19.135C18.411 17.4036 17.0325 16 15.332 16C13.6316 16 12.2531 17.4036 12.2531 19.135C12.2531 20.8664 13.6316 22.27 15.332 22.27ZM15.332 23.6633C18.8305 23.6633 21.684 26.4749 21.832 30H8.83203C8.98002 26.4749 11.8336 23.6633 15.332 23.6633Z" fill="#D1BAEE"/>
</svg>
