<svg width="30" height="34" viewBox="0 0 30 34" fill="none" xmlns="http://www.w3.org/2000/svg">
<path fill-rule="evenodd" clip-rule="evenodd" d="M23.8323 9.22627V6.39033L20.9961 6.39034V3.55449L23.8323 3.55449V0.71875H26.6682V3.55449L29.5036 3.55449V6.39033L26.6682 6.39033V9.22627H23.8323ZM26.7211 32.4721V13.6361C26.3205 13.6906 25.9116 13.7188 25.4961 13.7188C24.855 13.7188 24.2295 13.6518 23.6264 13.5243V27.1174L11.009 19.8477L3.59081 26.4124V8.48996L16.198 15.9474L20.458 12.1776C19.5946 11.5933 18.8381 10.863 18.2239 10.0222L15.8344 12.1367L0.496094 3.06377V33.2835L11.3929 23.6405L26.7211 32.4721Z" fill="black"/>
</svg>
