<svg width="12" height="16" viewBox="0 0 12 16" fill="none" xmlns="http://www.w3.org/2000/svg">
<path d="M7.293 0H2C1.46957 0 0.960859 0.210714 0.585786 0.585786C0.210714 0.960859 0 1.46957 0 2V14C0 14.5304 0.210714 15.0391 0.585786 15.4142C0.960859 15.7893 1.46957 16 2 16H10C10.5304 16 11.0391 15.7893 11.4142 15.4142C11.7893 15.0391 12 14.5304 12 14V4.707C11.9999 4.4418 11.8945 4.18749 11.707 4L8 0.293C7.81251 0.105451 7.5582 5.66374e-05 7.293 0ZM7.5 3.5V1.5L10.5 4.5H8.5C8.23478 4.5 7.98043 4.39464 7.79289 4.20711C7.60536 4.01957 7.5 3.76522 7.5 3.5ZM3.884 6.68L6 9.219L8.116 6.679C8.201 6.57716 8.32298 6.51325 8.4551 6.50134C8.58722 6.48943 8.71866 6.5305 8.8205 6.6155C8.92234 6.7005 8.98625 6.82248 8.99816 6.9546C9.01007 7.08672 8.969 7.21816 8.884 7.32L6.651 10L8.884 12.68C8.96513 12.7823 9.00306 12.9122 8.98969 13.042C8.97631 13.1719 8.91269 13.2913 8.81241 13.3749C8.71213 13.4585 8.58316 13.4995 8.45303 13.4892C8.3229 13.479 8.20195 13.4182 8.116 13.32L6 10.781L3.884 13.321C3.799 13.4228 3.67702 13.4867 3.5449 13.4987C3.41278 13.5106 3.28134 13.4695 3.1795 13.3845C3.07766 13.2995 3.01375 13.1775 3.00184 13.0454C2.98993 12.9133 3.031 12.7818 3.116 12.68L5.349 10L3.116 7.32C3.0721 7.26982 3.03868 7.21137 3.01771 7.14808C2.99673 7.0848 2.98862 7.01796 2.99386 6.95149C2.9991 6.88503 3.01758 6.82028 3.04821 6.76106C3.07884 6.70185 3.12101 6.64935 3.17223 6.60667C3.22344 6.56399 3.28268 6.53198 3.34645 6.51253C3.41022 6.49308 3.47724 6.48658 3.54356 6.49341C3.60988 6.50025 3.67416 6.52027 3.73263 6.55232C3.79109 6.58436 3.84256 6.62777 3.884 6.68Z" fill="#0D7F41"/>
</svg>
