<svg width="21" height="22" viewBox="0 0 21 22" fill="none" xmlns="http://www.w3.org/2000/svg">
<path fill-rule="evenodd" clip-rule="evenodd" d="M16.5224 10.2183C16.5224 14.2285 13.2715 17.4795 9.26122 17.4795C5.25096 17.4795 2 14.2285 2 10.2183C2 6.20799 5.25096 2.95703 9.26122 2.95703C13.2715 2.95703 16.5224 6.20799 16.5224 10.2183ZM15.3334 17.2112C13.7076 18.6241 11.5843 19.4795 9.26122 19.4795C4.14639 19.4795 0 15.3331 0 10.2183C0 5.10342 4.14639 0.957031 9.26122 0.957031C14.3761 0.957031 18.5224 5.10342 18.5224 10.2183C18.5224 12.2894 17.8426 14.2017 16.6939 15.7442L20.9587 19.9228L19.559 21.3514L15.3334 17.2112Z" fill="#222222"/>
</svg>
