<svg width="37" height="38" viewBox="0 0 37 38" fill="none" xmlns="http://www.w3.org/2000/svg">
<path fill-rule="evenodd" clip-rule="evenodd" d="M22.0793 0.926078C19.8644 -0.308692 17.1356 -0.308693 14.9207 0.926077L4.07935 6.96991C1.86444 8.20468 0.5 10.4866 0.5 12.9562V25.0438C0.5 27.5134 1.86444 29.7953 4.07935 31.0301L14.9207 37.0739C17.1356 38.3087 19.8644 38.3087 22.0793 37.0739L32.9207 31.0301C35.1356 29.7953 36.5 27.5134 36.5 25.0438V12.9562C36.5 10.4866 35.1356 8.20468 32.9207 6.96991L22.0793 0.926078Z" fill="black"/>
<path fill-rule="evenodd" clip-rule="evenodd" d="M19.293 18.7323L23.6826 23.1219L22.6219 24.1826L18.2323 19.793L13.8428 24.1826L12.7821 23.1219L17.1717 18.7323L12.5 14.0607L13.5607 13L18.2323 17.6717L22.904 13L23.9647 14.0607L19.293 18.7323Z" fill="white"/>
</svg>
