<svg width="40" height="41" viewBox="0 0 40 41" fill="none" xmlns="http://www.w3.org/2000/svg">
<path fill-rule="evenodd" clip-rule="evenodd" d="M39.999 1.16406L38.858 13.6128L34.879 9.53633L21.1845 23.28L15.7693 17.0527L3.15556 30.7463L0 27.5696L15.8613 10.3504L21.398 16.7173L31.7488 6.32936L28.1164 2.60795L39.999 1.16406ZM15.2686 21.716C14.4771 22.5435 13.5363 23.5311 12.5307 24.5921V39.4623H18.0066V24.8385L15.2686 21.716ZM33.3393 15.9914L27.8634 21.716V39.4623H33.3393V15.9914ZM21.2922 28.5855L20.197 27.3365V39.4623H25.673V24.0059L21.2922 28.5855ZM4.86431 39.4623V32.8221C6.32755 31.1994 8.3436 29.0332 10.3403 26.9112V39.4623H4.86431Z" fill="#C31239"/>
</svg>
