<svg width="40" height="40" viewBox="0 0 40 40" fill="none" xmlns="http://www.w3.org/2000/svg">
<path fill-rule="evenodd" clip-rule="evenodd" d="M34 13.8125C34 18.9117 31.0681 23.3506 26.7412 25.6473V28.3125C26.7412 28.8648 26.2935 29.3125 25.7412 29.3125H21.2199L26.0572 19.9833L24.6659 19.3125L20.0912 28.1352L15.6871 19.6417L14.2958 20.3125L18.9625 29.3125H14.2598C13.7075 29.3125 13.2598 28.8648 13.2598 28.3125V25.6478C8.93232 23.3513 6 18.9121 6 13.8125C6 6.35666 12.268 0.3125 20 0.3125C27.732 0.3125 34 6.35666 34 13.8125Z" fill="#C31239"/>
<path d="M13.5 31.3125H26.5V33.8125C26.5 36.8501 24.0376 39.3125 21 39.3125H19C15.9624 39.3125 13.5 36.8501 13.5 33.8125V31.3125Z" fill="#C31239"/>
</svg>
