<svg width="459" height="118" viewBox="0 0 459 118" fill="none" xmlns="http://www.w3.org/2000/svg">
<path d="M17.556 78.676H36.876V88H5.796V29.368H17.556V78.676ZM65.0147 88.756C60.5347 88.756 56.5027 87.776 52.9187 85.816C49.3347 83.8 46.5067 80.972 44.4347 77.332C42.4187 73.692 41.4107 69.492 41.4107 64.732C41.4107 59.972 42.4467 55.772 44.5187 52.132C46.6467 48.492 49.5307 45.692 53.1707 43.732C56.8107 41.716 60.8707 40.708 65.3507 40.708C69.8307 40.708 73.8907 41.716 77.5307 43.732C81.1707 45.692 84.0267 48.492 86.0987 52.132C88.2267 55.772 89.2907 59.972 89.2907 64.732C89.2907 69.492 88.1987 73.692 86.0147 77.332C83.8867 80.972 80.9747 83.8 77.2787 85.816C73.6387 87.776 69.5507 88.756 65.0147 88.756ZM65.0147 78.508C67.1427 78.508 69.1307 78.004 70.9787 76.996C72.8827 75.932 74.3947 74.364 75.5147 72.292C76.6347 70.22 77.1947 67.7 77.1947 64.732C77.1947 60.308 76.0187 56.92 73.6667 54.568C71.3707 52.16 68.5427 50.956 65.1827 50.956C61.8227 50.956 58.9947 52.16 56.6987 54.568C54.4587 56.92 53.3387 60.308 53.3387 64.732C53.3387 69.156 54.4307 72.572 56.6147 74.98C58.8547 77.332 61.6547 78.508 65.0147 78.508ZM116.145 40.708C119.617 40.708 122.669 41.408 125.301 42.808C127.933 44.152 130.005 45.916 131.517 48.1V41.464H143.361V88.336C143.361 92.648 142.493 96.484 140.757 99.844C139.021 103.26 136.417 105.948 132.945 107.908C129.473 109.924 125.273 110.932 120.345 110.932C113.737 110.932 108.305 109.392 104.049 106.312C99.8491 103.232 97.4691 99.032 96.9091 93.712H108.585C109.201 95.84 110.517 97.52 112.533 98.752C114.605 100.04 117.097 100.684 120.009 100.684C123.425 100.684 126.197 99.648 128.325 97.576C130.453 95.56 131.517 92.48 131.517 88.336V81.112C130.005 83.296 127.905 85.116 125.217 86.572C122.585 88.028 119.561 88.756 116.145 88.756C112.225 88.756 108.641 87.748 105.393 85.732C102.145 83.716 99.5691 80.888 97.6651 77.248C95.8171 73.552 94.8931 69.324 94.8931 64.564C94.8931 59.86 95.8171 55.688 97.6651 52.048C99.5691 48.408 102.117 45.608 105.309 43.648C108.557 41.688 112.169 40.708 116.145 40.708ZM131.517 64.732C131.517 61.876 130.957 59.44 129.837 57.424C128.717 55.352 127.205 53.784 125.301 52.72C123.397 51.6 121.353 51.04 119.169 51.04C116.985 51.04 114.969 51.572 113.121 52.636C111.273 53.7 109.761 55.268 108.585 57.34C107.465 59.356 106.905 61.764 106.905 64.564C106.905 67.364 107.465 69.828 108.585 71.956C109.761 74.028 111.273 75.624 113.121 76.744C115.025 77.864 117.041 78.424 119.169 78.424C121.353 78.424 123.397 77.892 125.301 76.828C127.205 75.708 128.717 74.14 129.837 72.124C130.957 70.052 131.517 67.588 131.517 64.732ZM160.811 35.92C158.739 35.92 157.003 35.276 155.603 33.988C154.259 32.644 153.587 30.992 153.587 29.032C153.587 27.072 154.259 25.448 155.603 24.16C157.003 22.816 158.739 22.144 160.811 22.144C162.883 22.144 164.591 22.816 165.935 24.16C167.335 25.448 168.035 27.072 168.035 29.032C168.035 30.992 167.335 32.644 165.935 33.988C164.591 35.276 162.883 35.92 160.811 35.92ZM166.607 41.464V88H154.847V41.464H166.607ZM204.014 40.792C209.558 40.792 214.038 42.556 217.454 46.084C220.87 49.556 222.578 54.428 222.578 60.7V88H210.818V62.296C210.818 58.6 209.894 55.772 208.046 53.812C206.198 51.796 203.678 50.788 200.486 50.788C197.238 50.788 194.662 51.796 192.758 53.812C190.91 55.772 189.986 58.6 189.986 62.296V88H178.226V41.464H189.986V47.26C191.554 45.244 193.542 43.676 195.95 42.556C198.414 41.38 201.102 40.792 204.014 40.792Z" fill="white"/>
<path d="M168.112 94.544V107H166.474V97.712L162.334 107H161.182L157.024 97.694V107H155.386V94.544H157.15L161.758 104.84L166.366 94.544H168.112ZM179.89 101.69C179.89 102.002 179.872 102.332 179.836 102.68H171.952C172.012 103.652 172.342 104.414 172.942 104.966C173.554 105.506 174.292 105.776 175.156 105.776C175.864 105.776 176.452 105.614 176.92 105.29C177.4 104.954 177.736 104.51 177.928 103.958H179.692C179.428 104.906 178.9 105.68 178.108 106.28C177.316 106.868 176.332 107.162 175.156 107.162C174.22 107.162 173.38 106.952 172.636 106.532C171.904 106.112 171.328 105.518 170.908 104.75C170.488 103.97 170.278 103.07 170.278 102.05C170.278 101.03 170.482 100.136 170.89 99.368C171.298 98.6 171.868 98.012 172.6 97.604C173.344 97.184 174.196 96.974 175.156 96.974C176.092 96.974 176.92 97.178 177.64 97.586C178.36 97.994 178.912 98.558 179.296 99.278C179.692 99.986 179.89 100.79 179.89 101.69ZM178.198 101.348C178.198 100.724 178.06 100.19 177.784 99.746C177.508 99.29 177.13 98.948 176.65 98.72C176.182 98.48 175.66 98.36 175.084 98.36C174.256 98.36 173.548 98.624 172.96 99.152C172.384 99.68 172.054 100.412 171.97 101.348H178.198ZM193.914 96.956C194.682 96.956 195.366 97.118 195.966 97.442C196.566 97.754 197.04 98.228 197.388 98.864C197.736 99.5 197.91 100.274 197.91 101.186V107H196.29V101.42C196.29 100.436 196.044 99.686 195.552 99.17C195.072 98.642 194.418 98.378 193.59 98.378C192.738 98.378 192.06 98.654 191.556 99.206C191.052 99.746 190.8 100.532 190.8 101.564V107H189.18V101.42C189.18 100.436 188.934 99.686 188.442 99.17C187.962 98.642 187.308 98.378 186.48 98.378C185.628 98.378 184.95 98.654 184.446 99.206C183.942 99.746 183.69 100.532 183.69 101.564V107H182.052V97.136H183.69V98.558C184.014 98.042 184.446 97.646 184.986 97.37C185.538 97.094 186.144 96.956 186.804 96.956C187.632 96.956 188.364 97.142 189 97.514C189.636 97.886 190.11 98.432 190.422 99.152C190.698 98.456 191.154 97.916 191.79 97.532C192.426 97.148 193.134 96.956 193.914 96.956ZM202.235 98.972C202.571 98.384 203.063 97.904 203.711 97.532C204.359 97.16 205.097 96.974 205.925 96.974C206.813 96.974 207.611 97.184 208.319 97.604C209.027 98.024 209.585 98.618 209.993 99.386C210.401 100.142 210.605 101.024 210.605 102.032C210.605 103.028 210.401 103.916 209.993 104.696C209.585 105.476 209.021 106.082 208.301 106.514C207.593 106.946 206.801 107.162 205.925 107.162C205.073 107.162 204.323 106.976 203.675 106.604C203.039 106.232 202.559 105.758 202.235 105.182V107H200.597V93.68H202.235V98.972ZM208.931 102.032C208.931 101.288 208.781 100.64 208.481 100.088C208.181 99.536 207.773 99.116 207.257 98.828C206.753 98.54 206.195 98.396 205.583 98.396C204.983 98.396 204.425 98.546 203.909 98.846C203.405 99.134 202.997 99.56 202.685 100.124C202.385 100.676 202.235 101.318 202.235 102.05C202.235 102.794 202.385 103.448 202.685 104.012C202.997 104.564 203.405 104.99 203.909 105.29C204.425 105.578 204.983 105.722 205.583 105.722C206.195 105.722 206.753 105.578 207.257 105.29C207.773 104.99 208.181 104.564 208.481 104.012C208.781 103.448 208.931 102.788 208.931 102.032ZM221.761 101.69C221.761 102.002 221.743 102.332 221.707 102.68H213.823C213.883 103.652 214.213 104.414 214.813 104.966C215.425 105.506 216.163 105.776 217.027 105.776C217.735 105.776 218.323 105.614 218.791 105.29C219.271 104.954 219.607 104.51 219.799 103.958H221.563C221.299 104.906 220.771 105.68 219.979 106.28C219.187 106.868 218.203 107.162 217.027 107.162C216.091 107.162 215.251 106.952 214.507 106.532C213.775 106.112 213.199 105.518 212.779 104.75C212.359 103.97 212.149 103.07 212.149 102.05C212.149 101.03 212.353 100.136 212.761 99.368C213.169 98.6 213.739 98.012 214.471 97.604C215.215 97.184 216.067 96.974 217.027 96.974C217.963 96.974 218.791 97.178 219.511 97.586C220.231 97.994 220.783 98.558 221.167 99.278C221.563 99.986 221.761 100.79 221.761 101.69ZM220.069 101.348C220.069 100.724 219.931 100.19 219.655 99.746C219.379 99.29 219.001 98.948 218.521 98.72C218.053 98.48 217.531 98.36 216.955 98.36C216.127 98.36 215.419 98.624 214.831 99.152C214.255 99.68 213.925 100.412 213.841 101.348H220.069ZM225.561 98.738C225.849 98.174 226.257 97.736 226.785 97.424C227.325 97.112 227.979 96.956 228.747 96.956V98.648H228.315C226.479 98.648 225.561 99.644 225.561 101.636V107H223.923V97.136H225.561V98.738ZM234.13 107.162C233.374 107.162 232.696 107.036 232.096 106.784C231.496 106.52 231.022 106.16 230.674 105.704C230.326 105.236 230.134 104.702 230.098 104.102H231.79C231.838 104.594 232.066 104.996 232.474 105.308C232.894 105.62 233.44 105.776 234.112 105.776C234.736 105.776 235.228 105.638 235.588 105.362C235.948 105.086 236.128 104.738 236.128 104.318C236.128 103.886 235.936 103.568 235.552 103.364C235.168 103.148 234.574 102.938 233.77 102.734C233.038 102.542 232.438 102.35 231.97 102.158C231.514 101.954 231.118 101.66 230.782 101.276C230.458 100.88 230.296 100.364 230.296 99.728C230.296 99.224 230.446 98.762 230.746 98.342C231.046 97.922 231.472 97.592 232.024 97.352C232.576 97.1 233.206 96.974 233.914 96.974C235.006 96.974 235.888 97.25 236.56 97.802C237.232 98.354 237.592 99.11 237.64 100.07H236.002C235.966 99.554 235.756 99.14 235.372 98.828C235 98.516 234.496 98.36 233.86 98.36C233.272 98.36 232.804 98.486 232.456 98.738C232.108 98.99 231.934 99.32 231.934 99.728C231.934 100.052 232.036 100.322 232.24 100.538C232.456 100.742 232.72 100.91 233.032 101.042C233.356 101.162 233.8 101.3 234.364 101.456C235.072 101.648 235.648 101.84 236.092 102.032C236.536 102.212 236.914 102.488 237.226 102.86C237.55 103.232 237.718 103.718 237.73 104.318C237.73 104.858 237.58 105.344 237.28 105.776C236.98 106.208 236.554 106.55 236.002 106.802C235.462 107.042 234.838 107.162 234.13 107.162ZM244.938 96.956C245.682 96.956 246.354 97.118 246.954 97.442C247.554 97.754 248.022 98.228 248.358 98.864C248.706 99.5 248.88 100.274 248.88 101.186V107H247.26V101.42C247.26 100.436 247.014 99.686 246.522 99.17C246.03 98.642 245.358 98.378 244.506 98.378C243.642 98.378 242.952 98.648 242.436 99.188C241.932 99.728 241.68 100.514 241.68 101.546V107H240.042V93.68H241.68V98.54C242.004 98.036 242.448 97.646 243.012 97.37C243.588 97.094 244.23 96.956 244.938 96.956ZM252.402 95.534C252.09 95.534 251.826 95.426 251.61 95.21C251.394 94.994 251.286 94.73 251.286 94.418C251.286 94.106 251.394 93.842 251.61 93.626C251.826 93.41 252.09 93.302 252.402 93.302C252.702 93.302 252.954 93.41 253.158 93.626C253.374 93.842 253.482 94.106 253.482 94.418C253.482 94.73 253.374 94.994 253.158 95.21C252.954 95.426 252.702 95.534 252.402 95.534ZM253.194 97.136V107H251.556V97.136H253.194ZM257.624 98.954C257.948 98.39 258.428 97.922 259.064 97.55C259.712 97.166 260.462 96.974 261.314 96.974C262.19 96.974 262.982 97.184 263.69 97.604C264.41 98.024 264.974 98.618 265.382 99.386C265.79 100.142 265.994 101.024 265.994 102.032C265.994 103.028 265.79 103.916 265.382 104.696C264.974 105.476 264.41 106.082 263.69 106.514C262.982 106.946 262.19 107.162 261.314 107.162C260.474 107.162 259.73 106.976 259.082 106.604C258.446 106.22 257.96 105.746 257.624 105.182V111.68H255.986V97.136H257.624V98.954ZM264.32 102.032C264.32 101.288 264.17 100.64 263.87 100.088C263.57 99.536 263.162 99.116 262.646 98.828C262.142 98.54 261.584 98.396 260.972 98.396C260.372 98.396 259.814 98.546 259.298 98.846C258.794 99.134 258.386 99.56 258.074 100.124C257.774 100.676 257.624 101.318 257.624 102.05C257.624 102.794 257.774 103.448 258.074 104.012C258.386 104.564 258.794 104.99 259.298 105.29C259.814 105.578 260.372 105.722 260.972 105.722C261.584 105.722 262.142 105.578 262.646 105.29C263.162 104.99 263.57 104.564 263.87 104.012C264.17 103.448 264.32 102.788 264.32 102.032ZM279.231 100.538C279.687 100.61 280.101 100.796 280.473 101.096C280.857 101.396 281.157 101.768 281.373 102.212C281.601 102.656 281.715 103.13 281.715 103.634C281.715 104.27 281.553 104.846 281.229 105.362C280.905 105.866 280.431 106.268 279.807 106.568C279.195 106.856 278.469 107 277.629 107H272.949V94.454H277.449C278.301 94.454 279.027 94.598 279.627 94.886C280.227 95.162 280.677 95.54 280.977 96.02C281.277 96.5 281.427 97.04 281.427 97.64C281.427 98.384 281.223 99.002 280.814 99.494C280.419 99.974 279.891 100.322 279.231 100.538ZM274.587 99.872H277.341C278.109 99.872 278.703 99.692 279.123 99.332C279.543 98.972 279.753 98.474 279.753 97.838C279.753 97.202 279.543 96.704 279.123 96.344C278.703 95.984 278.097 95.804 277.305 95.804H274.587V99.872ZM277.485 105.65C278.301 105.65 278.937 105.458 279.393 105.074C279.849 104.69 280.077 104.156 280.077 103.472C280.077 102.776 279.837 102.23 279.357 101.834C278.877 101.426 278.235 101.222 277.431 101.222H274.587V105.65H277.485ZM292.736 97.136V107H291.098V105.542C290.786 106.046 290.348 106.442 289.784 106.73C289.232 107.006 288.62 107.144 287.948 107.144C287.18 107.144 286.49 106.988 285.878 106.676C285.266 106.352 284.78 105.872 284.42 105.236C284.072 104.6 283.898 103.826 283.898 102.914V97.136H285.518V102.698C285.518 103.67 285.764 104.42 286.256 104.948C286.748 105.464 287.42 105.722 288.272 105.722C289.148 105.722 289.838 105.452 290.342 104.912C290.846 104.372 291.098 103.586 291.098 102.554V97.136H292.736ZM298.993 107.162C298.237 107.162 297.559 107.036 296.959 106.784C296.359 106.52 295.885 106.16 295.537 105.704C295.189 105.236 294.997 104.702 294.961 104.102H296.653C296.701 104.594 296.929 104.996 297.337 105.308C297.757 105.62 298.303 105.776 298.975 105.776C299.599 105.776 300.091 105.638 300.451 105.362C300.811 105.086 300.991 104.738 300.991 104.318C300.991 103.886 300.799 103.568 300.415 103.364C300.031 103.148 299.437 102.938 298.633 102.734C297.901 102.542 297.301 102.35 296.833 102.158C296.377 101.954 295.981 101.66 295.645 101.276C295.321 100.88 295.159 100.364 295.159 99.728C295.159 99.224 295.309 98.762 295.609 98.342C295.909 97.922 296.335 97.592 296.887 97.352C297.439 97.1 298.069 96.974 298.777 96.974C299.869 96.974 300.751 97.25 301.423 97.802C302.095 98.354 302.455 99.11 302.503 100.07H300.865C300.829 99.554 300.619 99.14 300.235 98.828C299.863 98.516 299.359 98.36 298.723 98.36C298.135 98.36 297.667 98.486 297.319 98.738C296.971 98.99 296.797 99.32 296.797 99.728C296.797 100.052 296.899 100.322 297.103 100.538C297.319 100.742 297.583 100.91 297.895 101.042C298.219 101.162 298.663 101.3 299.227 101.456C299.935 101.648 300.511 101.84 300.955 102.032C301.399 102.212 301.777 102.488 302.089 102.86C302.413 103.232 302.581 103.718 302.593 104.318C302.593 104.858 302.443 105.344 302.143 105.776C301.843 106.208 301.417 106.55 300.865 106.802C300.325 107.042 299.701 107.162 298.993 107.162ZM305.752 95.534C305.44 95.534 305.176 95.426 304.96 95.21C304.744 94.994 304.636 94.73 304.636 94.418C304.636 94.106 304.744 93.842 304.96 93.626C305.176 93.41 305.44 93.302 305.752 93.302C306.052 93.302 306.304 93.41 306.508 93.626C306.724 93.842 306.832 94.106 306.832 94.418C306.832 94.73 306.724 94.994 306.508 95.21C306.304 95.426 306.052 95.534 305.752 95.534ZM306.544 97.136V107H304.906V97.136H306.544ZM314.141 96.956C315.341 96.956 316.313 97.322 317.057 98.054C317.801 98.774 318.173 99.818 318.173 101.186V107H316.553V101.42C316.553 100.436 316.307 99.686 315.815 99.17C315.323 98.642 314.651 98.378 313.799 98.378C312.935 98.378 312.245 98.648 311.729 99.188C311.225 99.728 310.973 100.514 310.973 101.546V107H309.335V97.136H310.973V98.54C311.297 98.036 311.735 97.646 312.287 97.37C312.851 97.094 313.469 96.956 314.141 96.956ZM329.849 101.69C329.849 102.002 329.831 102.332 329.795 102.68H321.911C321.971 103.652 322.301 104.414 322.901 104.966C323.513 105.506 324.251 105.776 325.115 105.776C325.823 105.776 326.411 105.614 326.879 105.29C327.359 104.954 327.695 104.51 327.887 103.958H329.651C329.387 104.906 328.859 105.68 328.067 106.28C327.275 106.868 326.291 107.162 325.115 107.162C324.179 107.162 323.339 106.952 322.595 106.532C321.863 106.112 321.287 105.518 320.867 104.75C320.447 103.97 320.237 103.07 320.237 102.05C320.237 101.03 320.441 100.136 320.849 99.368C321.257 98.6 321.827 98.012 322.559 97.604C323.303 97.184 324.155 96.974 325.115 96.974C326.051 96.974 326.879 97.178 327.599 97.586C328.319 97.994 328.871 98.558 329.255 99.278C329.651 99.986 329.849 100.79 329.849 101.69ZM328.157 101.348C328.157 100.724 328.019 100.19 327.743 99.746C327.467 99.29 327.089 98.948 326.609 98.72C326.141 98.48 325.619 98.36 325.043 98.36C324.215 98.36 323.507 98.624 322.919 99.152C322.343 99.68 322.013 100.412 321.929 101.348H328.157ZM335.503 107.162C334.747 107.162 334.069 107.036 333.469 106.784C332.869 106.52 332.395 106.16 332.047 105.704C331.699 105.236 331.507 104.702 331.471 104.102H333.163C333.211 104.594 333.439 104.996 333.847 105.308C334.267 105.62 334.813 105.776 335.485 105.776C336.109 105.776 336.601 105.638 336.961 105.362C337.321 105.086 337.501 104.738 337.501 104.318C337.501 103.886 337.309 103.568 336.925 103.364C336.541 103.148 335.947 102.938 335.143 102.734C334.411 102.542 333.811 102.35 333.343 102.158C332.887 101.954 332.491 101.66 332.155 101.276C331.831 100.88 331.669 100.364 331.669 99.728C331.669 99.224 331.819 98.762 332.119 98.342C332.419 97.922 332.845 97.592 333.397 97.352C333.949 97.1 334.579 96.974 335.287 96.974C336.379 96.974 337.261 97.25 337.933 97.802C338.605 98.354 338.965 99.11 339.013 100.07H337.375C337.339 99.554 337.129 99.14 336.745 98.828C336.373 98.516 335.869 98.36 335.233 98.36C334.645 98.36 334.177 98.486 333.829 98.738C333.481 98.99 333.307 99.32 333.307 99.728C333.307 100.052 333.409 100.322 333.613 100.538C333.829 100.742 334.093 100.91 334.405 101.042C334.729 101.162 335.173 101.3 335.737 101.456C336.445 101.648 337.021 101.84 337.465 102.032C337.909 102.212 338.287 102.488 338.599 102.86C338.923 103.232 339.091 103.718 339.103 104.318C339.103 104.858 338.953 105.344 338.653 105.776C338.353 106.208 337.927 106.55 337.375 106.802C336.835 107.042 336.211 107.162 335.503 107.162ZM344.907 107.162C344.151 107.162 343.473 107.036 342.873 106.784C342.273 106.52 341.799 106.16 341.451 105.704C341.103 105.236 340.911 104.702 340.875 104.102H342.567C342.615 104.594 342.843 104.996 343.251 105.308C343.671 105.62 344.217 105.776 344.889 105.776C345.513 105.776 346.005 105.638 346.365 105.362C346.725 105.086 346.905 104.738 346.905 104.318C346.905 103.886 346.713 103.568 346.329 103.364C345.945 103.148 345.351 102.938 344.547 102.734C343.815 102.542 343.215 102.35 342.747 102.158C342.291 101.954 341.895 101.66 341.559 101.276C341.235 100.88 341.073 100.364 341.073 99.728C341.073 99.224 341.223 98.762 341.523 98.342C341.823 97.922 342.249 97.592 342.801 97.352C343.353 97.1 343.983 96.974 344.691 96.974C345.783 96.974 346.665 97.25 347.337 97.802C348.009 98.354 348.369 99.11 348.417 100.07H346.779C346.743 99.554 346.533 99.14 346.149 98.828C345.777 98.516 345.273 98.36 344.637 98.36C344.049 98.36 343.581 98.486 343.233 98.738C342.885 98.99 342.711 99.32 342.711 99.728C342.711 100.052 342.813 100.322 343.017 100.538C343.233 100.742 343.497 100.91 343.809 101.042C344.133 101.162 344.577 101.3 345.141 101.456C345.849 101.648 346.425 101.84 346.869 102.032C347.313 102.212 347.691 102.488 348.003 102.86C348.327 103.232 348.495 103.718 348.507 104.318C348.507 104.858 348.357 105.344 348.057 105.776C347.757 106.208 347.331 106.55 346.779 106.802C346.239 107.042 345.615 107.162 344.907 107.162ZM364.006 98.126C364.006 99.17 363.646 100.04 362.926 100.736C362.218 101.42 361.132 101.762 359.668 101.762H357.256V107H355.618V94.454H359.668C361.084 94.454 362.158 94.796 362.89 95.48C363.634 96.164 364.006 97.046 364.006 98.126ZM359.668 100.412C360.58 100.412 361.252 100.214 361.684 99.818C362.116 99.422 362.332 98.858 362.332 98.126C362.332 96.578 361.444 95.804 359.668 95.804H357.256V100.412H359.668ZM370.344 107.162C369.42 107.162 368.58 106.952 367.824 106.532C367.08 106.112 366.492 105.518 366.06 104.75C365.64 103.97 365.43 103.07 365.43 102.05C365.43 101.042 365.646 100.154 366.078 99.386C366.522 98.606 367.122 98.012 367.878 97.604C368.634 97.184 369.48 96.974 370.416 96.974C371.352 96.974 372.198 97.184 372.954 97.604C373.71 98.012 374.304 98.6 374.736 99.368C375.18 100.136 375.402 101.03 375.402 102.05C375.402 103.07 375.174 103.97 374.718 104.75C374.274 105.518 373.668 106.112 372.9 106.532C372.132 106.952 371.28 107.162 370.344 107.162ZM370.344 105.722C370.932 105.722 371.484 105.584 372 105.308C372.516 105.032 372.93 104.618 373.242 104.066C373.566 103.514 373.728 102.842 373.728 102.05C373.728 101.258 373.572 100.586 373.26 100.034C372.948 99.482 372.54 99.074 372.036 98.81C371.532 98.534 370.986 98.396 370.398 98.396C369.798 98.396 369.246 98.534 368.742 98.81C368.25 99.074 367.854 99.482 367.554 100.034C367.254 100.586 367.104 101.258 367.104 102.05C367.104 102.854 367.248 103.532 367.536 104.084C367.836 104.636 368.232 105.05 368.724 105.326C369.216 105.59 369.756 105.722 370.344 105.722ZM379.194 98.738C379.482 98.174 379.89 97.736 380.418 97.424C380.958 97.112 381.612 96.956 382.38 96.956V98.648H381.948C380.112 98.648 379.194 99.644 379.194 101.636V107H377.556V97.136H379.194V98.738ZM386.269 98.486V104.3C386.269 104.78 386.371 105.122 386.575 105.326C386.779 105.518 387.133 105.614 387.637 105.614H388.843V107H387.367C386.455 107 385.771 106.79 385.315 106.37C384.859 105.95 384.631 105.26 384.631 104.3V98.486H383.353V97.136H384.631V94.652H386.269V97.136H388.843V98.486H386.269ZM390.215 102.032C390.215 101.024 390.419 100.142 390.827 99.386C391.235 98.618 391.793 98.024 392.501 97.604C393.221 97.184 394.019 96.974 394.895 96.974C395.759 96.974 396.509 97.16 397.145 97.532C397.781 97.904 398.255 98.372 398.567 98.936V97.136H400.223V107H398.567V105.164C398.243 105.74 397.757 106.22 397.109 106.604C396.473 106.976 395.729 107.162 394.877 107.162C394.001 107.162 393.209 106.946 392.501 106.514C391.793 106.082 391.235 105.476 390.827 104.696C390.419 103.916 390.215 103.028 390.215 102.032ZM398.567 102.05C398.567 101.306 398.417 100.658 398.117 100.106C397.817 99.554 397.409 99.134 396.893 98.846C396.389 98.546 395.831 98.396 395.219 98.396C394.607 98.396 394.049 98.54 393.545 98.828C393.041 99.116 392.639 99.536 392.339 100.088C392.039 100.64 391.889 101.288 391.889 102.032C391.889 102.788 392.039 103.448 392.339 104.012C392.639 104.564 393.041 104.99 393.545 105.29C394.049 105.578 394.607 105.722 395.219 105.722C395.831 105.722 396.389 105.578 396.893 105.29C397.409 104.99 397.817 104.564 398.117 104.012C398.417 103.448 398.567 102.794 398.567 102.05ZM404.629 93.68V107H402.991V93.68H404.629ZM413.858 105.668H418.25V107H412.22V94.454H413.858V105.668ZM424.292 107.162C423.368 107.162 422.528 106.952 421.772 106.532C421.028 106.112 420.44 105.518 420.008 104.75C419.588 103.97 419.378 103.07 419.378 102.05C419.378 101.042 419.594 100.154 420.026 99.386C420.47 98.606 421.07 98.012 421.826 97.604C422.582 97.184 423.428 96.974 424.364 96.974C425.3 96.974 426.146 97.184 426.902 97.604C427.658 98.012 428.252 98.6 428.684 99.368C429.128 100.136 429.35 101.03 429.35 102.05C429.35 103.07 429.122 103.97 428.666 104.75C428.222 105.518 427.616 106.112 426.848 106.532C426.08 106.952 425.228 107.162 424.292 107.162ZM424.292 105.722C424.88 105.722 425.432 105.584 425.948 105.308C426.464 105.032 426.878 104.618 427.19 104.066C427.514 103.514 427.676 102.842 427.676 102.05C427.676 101.258 427.52 100.586 427.208 100.034C426.896 99.482 426.488 99.074 425.984 98.81C425.48 98.534 424.934 98.396 424.346 98.396C423.746 98.396 423.194 98.534 422.69 98.81C422.198 99.074 421.802 99.482 421.502 100.034C421.202 100.586 421.052 101.258 421.052 102.05C421.052 102.854 421.196 103.532 421.484 104.084C421.784 104.636 422.18 105.05 422.672 105.326C423.164 105.59 423.704 105.722 424.292 105.722ZM435.571 96.974C436.423 96.974 437.167 97.16 437.803 97.532C438.451 97.904 438.931 98.372 439.243 98.936V97.136H440.899V107.216C440.899 108.116 440.707 108.914 440.323 109.61C439.939 110.318 439.387 110.87 438.667 111.266C437.959 111.662 437.131 111.86 436.183 111.86C434.887 111.86 433.807 111.554 432.943 110.942C432.079 110.33 431.569 109.496 431.413 108.44H433.033C433.213 109.04 433.585 109.52 434.149 109.88C434.713 110.252 435.391 110.438 436.183 110.438C437.083 110.438 437.815 110.156 438.379 109.592C438.955 109.028 439.243 108.236 439.243 107.216V105.146C438.919 105.722 438.439 106.202 437.803 106.586C437.167 106.97 436.423 107.162 435.571 107.162C434.695 107.162 433.897 106.946 433.177 106.514C432.469 106.082 431.911 105.476 431.503 104.696C431.095 103.916 430.891 103.028 430.891 102.032C430.891 101.024 431.095 100.142 431.503 99.386C431.911 98.618 432.469 98.024 433.177 97.604C433.897 97.184 434.695 96.974 435.571 96.974ZM439.243 102.05C439.243 101.306 439.093 100.658 438.793 100.106C438.493 99.554 438.085 99.134 437.569 98.846C437.065 98.546 436.507 98.396 435.895 98.396C435.283 98.396 434.725 98.54 434.221 98.828C433.717 99.116 433.315 99.536 433.015 100.088C432.715 100.64 432.565 101.288 432.565 102.032C432.565 102.788 432.715 103.448 433.015 104.012C433.315 104.564 433.717 104.99 434.221 105.29C434.725 105.578 435.283 105.722 435.895 105.722C436.507 105.722 437.065 105.578 437.569 105.29C438.085 104.99 438.493 104.564 438.793 104.012C439.093 103.448 439.243 102.794 439.243 102.05ZM444.513 95.534C444.201 95.534 443.937 95.426 443.721 95.21C443.505 94.994 443.397 94.73 443.397 94.418C443.397 94.106 443.505 93.842 443.721 93.626C443.937 93.41 444.201 93.302 444.513 93.302C444.813 93.302 445.065 93.41 445.269 93.626C445.485 93.842 445.593 94.106 445.593 94.418C445.593 94.73 445.485 94.994 445.269 95.21C445.065 95.426 444.813 95.534 444.513 95.534ZM445.305 97.136V107H443.667V97.136H445.305ZM452.903 96.956C454.103 96.956 455.075 97.322 455.819 98.054C456.563 98.774 456.935 99.818 456.935 101.186V107H455.315V101.42C455.315 100.436 455.069 99.686 454.577 99.17C454.085 98.642 453.413 98.378 452.561 98.378C451.697 98.378 451.007 98.648 450.491 99.188C449.987 99.728 449.735 100.514 449.735 101.546V107H448.097V97.136H449.735V98.54C450.059 98.036 450.497 97.646 451.049 97.37C451.613 97.094 452.231 96.956 452.903 96.956Z" fill="white"/>
</svg>
