<svg width="154" height="33" viewBox="0 0 154 33" fill="none" xmlns="http://www.w3.org/2000/svg">
<g clip-path="url(#clip0_1166_8591)">
<path d="M28.485 18.1515V11.5716V11.5634C28.485 9.52817 27.3979 7.65637 25.6405 6.63464L17.0907 1.69766C15.3333 0.684112 13.1591 0.684112 11.4017 1.69766H11.3935L2.84375 6.63464L15.6603 14.2281L21.055 9.44643V28.9982L25.6405 26.3662C27.3979 25.3527 28.485 23.4727 28.485 21.4374V18.1515Z" fill="url(#paint0_linear_1166_8591)"/>
<path d="M0 14.8505V21.4305V21.4386C0 23.4739 1.08712 25.3457 2.84448 26.3674L11.3943 31.3044C13.1517 32.318 15.3259 32.318 17.0833 31.3044H17.0914L25.8129 26.2693L12.8247 18.774L7.42999 23.5556V4.00391L2.84448 6.63587C1.08712 7.6576 0 9.5294 0 11.5647V14.8505Z" fill="url(#paint1_linear_1166_8591)"/>
<path fill-rule="evenodd" clip-rule="evenodd" d="M72.1236 12.1358H77.3477L77.3399 23.3168H81.566L81.5738 12.1358H86.7978L86.8056 9.67188H72.1236V12.1358ZM51.1567 21.4537H50.6811L46.6265 11.0757C46.2991 10.2648 45.4258 9.75016 44.4044 9.75016H41.8859C40.5292 9.75016 39.539 10.5845 39.539 11.7306L39.4844 23.325H43.0399L43.0944 11.832H43.5701L47.5154 21.9839C47.8351 22.8026 48.6772 23.325 49.7142 23.325H54.7044L54.7589 9.74237H51.2035L51.1567 21.4537ZM63.5308 13.9369L66.9537 9.67188H71.0472L65.6204 16.5411L71.0472 23.3168H66.79L63.5308 19.1844L60.2794 23.3168H56.0222L61.4412 16.5411L56.0222 9.68747H60.1156L63.5308 13.9369Z" fill="#E50038"/>
<path d="M91.9755 9.212H93.9375V11.624C93.9375 12.704 93.8415 13.742 93.6495 14.738C93.4575 15.722 93.1635 16.646 92.7675 17.51C92.3835 18.362 91.8855 19.118 91.2735 19.778C90.6735 20.426 89.9595 20.942 89.1315 21.326L87.7095 19.346C88.4415 19.022 89.0715 18.596 89.5995 18.068C90.1395 17.528 90.5835 16.916 90.9315 16.232C91.2795 15.536 91.5375 14.798 91.7055 14.018C91.8855 13.238 91.9755 12.44 91.9755 11.624V9.212ZM92.4435 9.212H94.3875V11.624C94.3875 12.404 94.4715 13.166 94.6395 13.91C94.8075 14.654 95.0595 15.356 95.3955 16.016C95.7435 16.676 96.1755 17.264 96.6915 17.78C97.2195 18.284 97.8375 18.686 98.5455 18.986L97.1595 20.93C96.3555 20.558 95.6535 20.06 95.0535 19.436C94.4655 18.812 93.9795 18.092 93.5955 17.276C93.2115 16.448 92.9235 15.56 92.7315 14.612C92.5395 13.652 92.4435 12.656 92.4435 11.624V9.212ZM99.3555 7.898H101.75V24.62H99.3555V7.898ZM108.192 9.788H110.154V10.832C110.154 11.888 109.98 12.89 109.632 13.838C109.296 14.786 108.78 15.62 108.084 16.34C107.388 17.048 106.506 17.576 105.438 17.924L104.25 16.034C105.162 15.734 105.906 15.314 106.482 14.774C107.07 14.222 107.502 13.604 107.778 12.92C108.054 12.224 108.192 11.528 108.192 10.832V9.788ZM108.678 9.788H110.604V10.832C110.604 11.48 110.736 12.11 111 12.722C111.264 13.322 111.672 13.862 112.224 14.342C112.788 14.822 113.52 15.2 114.42 15.476L113.268 17.348C112.212 17.036 111.342 16.556 110.658 15.908C109.986 15.248 109.488 14.486 109.164 13.622C108.84 12.746 108.678 11.816 108.678 10.832V9.788ZM104.862 9.032H113.88V10.94H104.862V9.032ZM115.194 7.934H117.588V17.816H115.194V7.934ZM116.94 11.75H119.802V13.712H116.94V11.75ZM112.152 18.104C113.316 18.104 114.318 18.236 115.158 18.5C115.998 18.752 116.646 19.118 117.102 19.598C117.558 20.078 117.786 20.66 117.786 21.344C117.786 22.028 117.558 22.61 117.102 23.09C116.646 23.582 115.998 23.954 115.158 24.206C114.318 24.47 113.316 24.602 112.152 24.602C111 24.602 109.998 24.47 109.146 24.206C108.306 23.954 107.652 23.582 107.184 23.09C106.728 22.61 106.5 22.028 106.5 21.344C106.5 20.66 106.728 20.078 107.184 19.598C107.652 19.118 108.306 18.752 109.146 18.5C109.998 18.236 111 18.104 112.152 18.104ZM112.152 19.976C111.444 19.976 110.85 20.024 110.37 20.12C109.89 20.216 109.524 20.366 109.272 20.57C109.02 20.774 108.894 21.032 108.894 21.344C108.894 21.668 109.02 21.932 109.272 22.136C109.524 22.34 109.89 22.496 110.37 22.604C110.85 22.7 111.444 22.748 112.152 22.748C112.86 22.748 113.454 22.7 113.934 22.604C114.426 22.496 114.792 22.34 115.032 22.136C115.284 21.932 115.41 21.668 115.41 21.344C115.41 21.032 115.284 20.774 115.032 20.57C114.792 20.366 114.426 20.216 113.934 20.12C113.454 20.024 112.86 19.976 112.152 19.976ZM130.079 11.948H133.247V13.892H130.079V11.948ZM132.581 7.934H134.993V17.834H132.581V7.934ZM129.341 18.194C130.517 18.194 131.531 18.32 132.383 18.572C133.235 18.824 133.889 19.19 134.345 19.67C134.813 20.15 135.047 20.726 135.047 21.398C135.047 22.43 134.537 23.222 133.517 23.774C132.497 24.338 131.105 24.62 129.341 24.62C127.577 24.62 126.185 24.338 125.165 23.774C124.145 23.222 123.635 22.43 123.635 21.398C123.635 20.726 123.863 20.15 124.319 19.67C124.787 19.19 125.447 18.824 126.299 18.572C127.151 18.32 128.165 18.194 129.341 18.194ZM129.341 20.012C128.621 20.012 128.015 20.066 127.523 20.174C127.031 20.27 126.653 20.42 126.389 20.624C126.137 20.828 126.011 21.086 126.011 21.398C126.011 21.71 126.137 21.974 126.389 22.19C126.653 22.394 127.031 22.55 127.523 22.658C128.015 22.754 128.621 22.802 129.341 22.802C130.061 22.802 130.667 22.754 131.159 22.658C131.651 22.55 132.023 22.394 132.275 22.19C132.527 21.974 132.653 21.71 132.653 21.398C132.653 21.086 132.527 20.828 132.275 20.624C132.023 20.42 131.651 20.27 131.159 20.174C130.667 20.066 130.061 20.012 129.341 20.012ZM124.895 9.59H126.839V10.652C126.839 11.708 126.671 12.716 126.335 13.676C125.999 14.636 125.483 15.482 124.787 16.214C124.103 16.934 123.227 17.474 122.159 17.834L120.953 15.944C121.637 15.716 122.225 15.41 122.717 15.026C123.221 14.642 123.629 14.216 123.941 13.748C124.265 13.268 124.505 12.764 124.661 12.236C124.817 11.708 124.895 11.18 124.895 10.652V9.59ZM125.399 9.59H127.307V10.634C127.307 11.294 127.439 11.942 127.703 12.578C127.967 13.214 128.375 13.79 128.927 14.306C129.491 14.822 130.211 15.23 131.087 15.53L129.917 17.402C128.885 17.054 128.033 16.544 127.361 15.872C126.701 15.188 126.209 14.396 125.885 13.496C125.561 12.584 125.399 11.63 125.399 10.634V9.59ZM121.601 8.942H130.565V10.832H121.601V8.942ZM137.601 20.714H152.703V22.658H137.601V20.714ZM143.937 17.15H146.313V21.182H143.937V17.15ZM139.185 8.978H141.579V11.552H148.671V8.978H151.047V17.654H139.185V8.978ZM141.579 13.424V15.746H148.671V13.424H141.579Z" fill="#E50038"/>
</g>
<defs>
<linearGradient id="paint0_linear_1166_8591" x1="0.743327" y1="2.69282" x2="21.0605" y2="16.2792" gradientUnits="userSpaceOnUse">
<stop stop-color="#2D1B40"/>
<stop offset="1" stop-color="#E60039"/>
</linearGradient>
<linearGradient id="paint1_linear_1166_8591" x1="27.3589" y1="33.8432" x2="4.42415" y2="14.6478" gradientUnits="userSpaceOnUse">
<stop stop-color="#2D1B40"/>
<stop offset="0.2692" stop-color="#6E113E"/>
<stop offset="0.5125" stop-color="#A20A3C"/>
<stop offset="0.7231" stop-color="#C7053A"/>
<stop offset="0.8926" stop-color="#DE0139"/>
<stop offset="1" stop-color="#E60039"/>
</linearGradient>
<clipPath id="clip0_1166_8591">
<rect width="153.807" height="31.1259" fill="white" transform="translate(0 0.9375)"/>
</clipPath>
</defs>
</svg>
