<svg width="34" height="32" viewBox="0 0 34 32" fill="none" xmlns="http://www.w3.org/2000/svg">
<path d="M6 11.7708V11.0992C6 9.64889 6.78506 8.31218 8.05173 7.60577L17.0517 2.58654C18.2628 1.91114 19.7372 1.91114 20.9483 2.58654L29.9483 7.60577C31.2149 8.31218 32 9.64889 32 11.0992V20.9008C32 22.3511 31.2149 23.6878 29.9483 24.3942L20.9483 29.4135C19.7372 30.0889 18.2628 30.0889 17.0517 29.4135L7.58297 24.1328C6.6057 23.5878 6 22.5565 6 21.4375V21.4375" stroke="#E50038" stroke-width="3"/>
<path fill-rule="evenodd" clip-rule="evenodd" d="M13.5954 12.7907L16.7 15.7983C17.1 16.1858 17.1 16.8142 16.7 17.2017L13.5954 20.2093C13.1954 20.5969 12.5468 20.5969 12.1467 20.2093C11.7467 19.8218 11.7467 19.1934 12.1467 18.8059L13.5025 17.4924H0V15.5076H13.5025L12.1467 14.1941C11.7467 13.8066 11.7467 13.1782 12.1467 12.7907C12.5468 12.4031 13.1954 12.4031 13.5954 12.7907Z" fill="#E50038"/>
</svg>
