<svg width="13" height="12" viewBox="0 0 13 12" fill="none" xmlns="http://www.w3.org/2000/svg">
<path fill-rule="evenodd" clip-rule="evenodd" d="M1.5 9.5V10C1.5 10.1381 1.61193 10.25 1.75 10.25H10.75C10.8881 10.25 11 10.1381 11 10V9.5L12.5 8V10C12.5 10.9665 11.7165 11.75 10.75 11.75H1.75C0.783501 11.75 0 10.9665 0 10V8L1.5 9.5Z" fill="#333333"/>
<path fill-rule="evenodd" clip-rule="evenodd" d="M6.24986 8.98828L10.2379 5.56991L9.26171 4.43103L6.24985 7.01266L3.2379 4.43103L2.26172 5.56992L6.24986 8.98828Z" fill="#333333"/>
<path fill-rule="evenodd" clip-rule="evenodd" d="M5.44922 8L5.44922 -6.55682e-08L6.94922 0L6.94922 8L5.44922 8Z" fill="#333333"/>
</svg>
