<svg width="16" height="12" viewBox="0 0 16 12" fill="none" xmlns="http://www.w3.org/2000/svg">
<path fill-rule="evenodd" clip-rule="evenodd" d="M0 5.60572C0 5.60572 3.581 1.2 8 1.2C12.4173 1.2 16 5.60572 16 5.60572C16 5.60572 12.419 10.0114 8 10.0114C3.581 10.0114 0 5.60572 0 5.60572ZM4.46546 5.60572C4.46546 7.46758 5.97552 8.97764 7.83738 8.97764C9.69923 8.97764 11.2093 7.46758 11.2093 5.60572C11.2093 3.74387 9.69923 2.23381 7.83738 2.23381C5.97552 2.23381 4.46546 3.74387 4.46546 5.60572ZM9.57816 5.60572C9.57816 6.56892 8.79733 7.34975 7.83412 7.34975C6.87092 7.34975 6.09009 6.56892 6.09009 5.60572C6.09009 4.64251 6.87092 3.86168 7.83412 3.86168C8.79733 3.86168 9.57816 4.64251 9.57816 5.60572Z" fill="black"/>
</svg>
