<svg width="16" height="18" viewBox="0 0 16 18" fill="none" xmlns="http://www.w3.org/2000/svg">
<path fill-rule="evenodd" clip-rule="evenodd" d="M8 17C12.4183 17 16 13.4183 16 9C16 4.58172 12.4183 1 8 1C3.58172 1 0 4.58172 0 9C0 13.4183 3.58172 17 8 17ZM6.83881 4.54547H9.16089L8.94854 11.1055H7.05116L6.83881 4.54547ZM9.20244 12.9336C9.19321 13.5984 8.63461 14.1339 8.00216 14.1339C7.33738 14.1339 6.79264 13.5984 6.80187 12.9336C6.79264 12.2781 7.33738 11.7472 8.00216 11.7472C8.63461 11.7472 9.19321 12.2781 9.20244 12.9336Z" fill="#EE0004"/>
</svg>
