<svg width="16" height="12" viewBox="0 0 16 12" fill="none" xmlns="http://www.w3.org/2000/svg">
<path d="M8.00015 1.20141C7.41272 1.20141 6.84189 1.28106 6.28931 1.41547L7.17543 2.30159C7.38949 2.25845 7.61019 2.23522 7.83753 2.23522C9.69938 2.23522 11.2094 3.74528 11.2094 5.60713C11.2094 5.83281 11.1862 6.05517 11.1431 6.26923L13.0929 8.21903C14.8684 6.99937 16.0001 5.60879 16.0001 5.60879C16.0001 5.60879 12.4175 1.20141 8.00015 1.20141Z" fill="black"/>
<path d="M10.66 7.44741C10.6617 7.44409 10.665 7.44077 10.6667 7.43579L9.57808 6.34722C9.57642 6.35054 9.57476 6.35552 9.5731 6.35884L7.24828 4.03567C7.2516 4.03401 7.25658 4.03235 7.2599 4.03069L6.0087 2.7795C6.00539 2.78116 6.00207 2.78448 5.99709 2.78614L5.03961 1.82866L3.21261 0L2.80107 0.411532L2.3912 0.821405L3.93113 2.36133C1.57809 3.66728 0 5.60879 0 5.60879C0 5.60879 3.581 10.0145 7.99999 10.0145C9.04541 10.0145 10.0444 9.7656 10.9587 9.38891L12.7857 11.2159L13.6071 10.3945L12.0672 8.85458L10.66 7.44741ZM7.83737 8.97904C5.97552 8.97904 4.46546 7.46898 4.46546 5.60713C4.46546 4.8438 4.72101 4.14353 5.14913 3.57768L6.42687 4.85542C6.31735 5.08276 6.2543 5.33665 6.2543 5.60713C6.2543 6.57124 7.03588 7.35116 7.99833 7.35116C8.26715 7.35116 8.5227 7.28811 8.75004 7.17859L9.86516 8.2937C9.30096 8.72349 8.59903 8.97904 7.83737 8.97904Z" fill="black"/>
</svg>
