<svg width="30" height="30" viewBox="0 0 30 30" fill="none" xmlns="http://www.w3.org/2000/svg">
<g clip-path="url(#clip0_1046_3790)">
<path d="M15.6836 0V6.50686C19.9983 6.50686 23.4949 10.0034 23.4949 14.3182H30.0018C30.0018 6.41166 23.5901 0 15.6836 0Z" fill="white"/>
<path d="M14.3182 7.87014V1.36328C6.41166 1.36328 0 7.77494 0 15.6815C0 18.2904 0.699829 20.7321 1.91938 22.8393C2.54974 23.925 3.31647 24.9233 4.19897 25.8058L8.79931 21.2055C8.31818 20.7243 7.8988 20.1815 7.55403 19.5871C6.89022 18.437 6.50686 17.1043 6.50686 15.6815C6.50686 11.3667 10.0034 7.87014 14.3182 7.87014Z" fill="white"/>
<path d="M22.1298 15.6836C22.1298 17.1064 21.7464 18.4392 21.0826 19.5893C19.7318 21.9229 17.2104 23.4949 14.3184 23.4949C12.1623 23.4949 10.2121 22.6201 8.79956 21.2076L4.19922 25.808C6.79013 28.3989 10.3639 30.0018 14.3184 30.0018C19.616 30.0018 24.2395 27.1201 26.7172 22.8414C27.9368 20.7342 28.6366 18.2925 28.6366 15.6836H22.1298Z" fill="white"/>
</g>
<defs>
<clipPath id="clip0_1046_3790">
<rect width="30" height="30" fill="white"/>
</clipPath>
</defs>
</svg>
