<svg width="40" height="44" viewBox="0 0 40 44" fill="none" xmlns="http://www.w3.org/2000/svg">
<path d="M16.3979 1.85189C18.6269 0.564996 21.3731 0.564997 23.6021 1.85189L35.6479 8.80659C37.8769 10.0935 39.25 12.4717 39.25 15.0455V28.9549C39.25 31.5287 37.8769 33.907 35.6479 35.1939L23.6021 42.1486C21.3731 43.4355 18.6269 43.4355 16.3979 42.1486L4.35205 35.1939C2.12309 33.907 0.75 31.5287 0.75 28.9549V15.0455C0.75 12.4717 2.12309 10.0935 4.35205 8.80659L16.3979 1.85189Z" stroke="white" stroke-width="1.5"/>
<path d="M23 19.551L26.1803 21.9993L23 24.4475V22.9993V22.4993H22.5L13.5 22.4993V21.4993L22.5 21.4993H23V20.9993V19.551Z" fill="white" stroke="white"/>
</svg>
