<svg width="40" height="44" viewBox="0 0 40 44" fill="none" xmlns="http://www.w3.org/2000/svg">
<path d="M16.3979 1.85164C18.6269 0.564752 21.3731 0.564752 23.6021 1.85164L35.6479 8.80634C37.8769 10.0932 39.25 12.4715 39.25 15.0453V28.9547C39.25 31.5285 37.8769 33.9067 35.6479 35.1936L23.6021 42.1483C21.3731 43.4352 18.6269 43.4352 16.3979 42.1483L4.35205 35.1936C2.12309 33.9067 0.75 31.5285 0.75 28.9547V15.0453C0.75 12.4715 2.12309 10.0932 4.35205 8.80634L16.3979 1.85164Z" fill="#222222" stroke="#222222" stroke-width="1.5"/>
<path fill-rule="evenodd" clip-rule="evenodd" d="M22.5 25.4641L27 22L22.5 18.5359V21L13 21V23L22.5 23V25.4641Z" fill="white"/>
</svg>
