<svg width="181" height="32" viewBox="0 0 181 32" fill="none" xmlns="http://www.w3.org/2000/svg">
<g clip-path="url(#clip0_1046_5693)">
<path d="M28.6031 17.6605V11.0533V11.045C28.6031 9.00132 27.5115 7.12175 25.7468 6.09578L17.1615 1.13832C15.3969 0.12056 13.2136 0.12056 11.449 1.13832H11.4407L2.85547 6.09578L15.7252 13.7208L21.1423 8.91924V28.5521L25.7468 25.9092C27.5115 24.8915 28.6031 23.0037 28.6031 20.96V17.6605Z" fill="white"/>
<path d="M0 14.3448V20.952V20.9602C0 23.0039 1.09163 24.8835 2.85629 25.9095L11.4416 30.8669C13.2062 31.8847 15.3895 31.8847 17.1541 30.8669H17.1624L25.92 25.811L12.8779 18.2845L7.46082 23.086V3.45312L2.85629 6.09601C1.09163 7.12198 0 9.00155 0 11.0453V14.3448Z" fill="white"/>
<path d="M51.8924 21.2421H51.3918L47.1237 10.3176C46.779 9.46398 45.8598 8.92227 44.7845 8.92227H42.1334C40.7053 8.92227 39.6629 9.8005 39.6629 11.007L39.6055 23.2119H43.3482L43.4056 11.1137H43.9063L48.0594 21.8002C48.3959 22.662 49.2824 23.2119 50.374 23.2119H55.6269L55.6844 8.91406H51.9417L51.8924 21.2421Z" fill="white"/>
<path d="M72.5609 21.0897L63.1712 21.0979L63.1795 17.2977L72.1259 17.2895C72.3721 17.2895 72.5691 17.0925 72.5691 16.8463V15.2047L63.1795 15.2129V10.9531L72.5445 10.9449C72.7907 10.9449 72.9877 10.7479 72.9877 10.5017V8.84375L60.4955 8.86837C59.3793 8.86837 58.7309 9.41829 58.7309 10.3704L58.7227 23.1909H73.0205V21.5411C73.0205 21.2949 72.8153 21.0897 72.5609 21.0897Z" fill="white"/>
<path d="M180.014 21.0889L170.624 21.0971L170.632 17.2969L179.579 17.2887C179.825 17.2887 180.022 17.0917 180.022 16.8455V15.2039L170.64 15.2122V10.9523L180.005 10.9441C180.252 10.9441 180.449 10.7472 180.449 10.5009V8.85938L167.956 8.86758C166.84 8.86758 166.192 9.4175 166.192 10.3696L166.184 23.1901H180.481V21.5403C180.473 21.2941 180.268 21.0889 180.014 21.0889Z" fill="white"/>
<path d="M92.1445 11.4296H97.6437L97.6355 23.1995H102.084L102.092 11.4296H107.591L107.6 8.83594H92.1445V11.4296Z" fill="white"/>
<path d="M125.539 14.3523V12.3004C125.539 11.6848 125.4 11.061 125.063 10.5357C124.358 9.43589 123.044 8.82031 121.509 8.82031C121.509 8.82031 121.509 8.82031 121.501 8.82031L109.559 8.82852L109.551 23.192H114.008L114.016 17.7421H118.046L120.763 22.2564C121.091 22.7981 121.674 23.192 122.297 23.192H125.983L122.659 17.6026C124.399 17.225 125.539 15.9446 125.539 14.3523ZM121.395 14.4754C121.395 15.1074 120.828 15.8051 120.04 15.8051L114.008 15.8133L114.016 10.9379L120.048 10.9297C120.434 10.9297 120.787 11.0446 121.033 11.2498C121.271 11.4468 121.403 11.7094 121.403 12.0131L121.395 14.4754Z" fill="white"/>
<path d="M159.035 8.79688H159.026L149.136 8.80508C148.02 8.80508 147.371 9.355 147.371 10.3071L147.363 23.2014H159.018C162.006 23.2014 163.656 21.7158 163.656 19.2125L163.664 12.6709C163.664 11.5383 163.336 10.6354 162.679 9.97879C161.883 9.19905 160.66 8.79688 159.035 8.79688ZM159.158 19.155C159.158 20.222 158.206 20.9936 156.901 20.9936L151.82 21.0018L151.828 10.9145L156.917 10.9063C157.639 10.9063 158.263 11.1361 158.674 11.5465C158.994 11.8666 159.166 12.277 159.166 12.7366L159.158 19.155Z" fill="white"/>
<path d="M138.393 8.82031H136.603H134.215C132.959 8.82031 132.163 9.32919 131.802 10.3798L127.419 23.2085H127.32H131.777L133.525 18.0704H136.308H139.09L140.838 23.2085H145.295L140.814 10.3798C140.436 9.32919 139.648 8.82031 138.393 8.82031ZM136.3 15.9446H134.239L135.914 11.2662C135.979 11.0939 136.094 11.0036 136.3 10.9707C136.505 11.0036 136.62 11.0939 136.685 11.258L138.36 15.9446H136.3Z" fill="white"/>
<path d="M86.7025 8.83594L83.0993 13.3256L79.5044 8.85235H75.1953L80.8997 16.0669L75.1953 23.1995H79.6767L83.0993 18.8494L86.5302 23.1995H91.0116L85.299 16.0669L91.0116 8.83594H86.7025Z" fill="white"/>
</g>
<defs>
<clipPath id="clip0_1046_5693">
<rect width="180.481" height="31.255" fill="white" transform="translate(0 0.375)"/>
</clipPath>
</defs>
</svg>
