<svg width="219" height="32" viewBox="0 0 219 32" fill="none" xmlns="http://www.w3.org/2000/svg">
<path d="M28.485 17.6515V11.0716V11.0634C28.485 9.02817 27.3979 7.15637 25.6405 6.13464L17.0907 1.19766C15.3333 0.184112 13.1591 0.184112 11.4017 1.19766H11.3935L2.84375 6.13464L15.6603 13.7281L21.055 8.94643V28.4982L25.6405 25.8662C27.3979 24.8527 28.485 22.9727 28.485 20.9374V17.6515Z" fill="white"/>
<path d="M0 14.3505V20.9305V20.9386C0 22.9739 1.08712 24.8457 2.84448 25.8674L11.3943 30.8044C13.1517 31.818 15.3259 31.818 17.0833 30.8044H17.0914L25.8129 25.7693L12.8247 18.274L7.42999 23.0556V3.50391L2.84448 6.13587C1.08712 7.1576 0 9.0294 0 11.0647V14.3505Z" fill="white"/>
<path fill-rule="evenodd" clip-rule="evenodd" d="M77.7323 10.8873H83.8541L83.845 23.9897H88.7972L88.8063 10.8873H94.9281L94.9373 8H77.7323V10.8873ZM53.1625 21.8062H52.6051L47.8539 9.64482C47.4701 8.69457 46.4468 8.09153 45.2498 8.09153H42.2986C40.7087 8.09153 39.5483 9.06919 39.5483 10.4123L39.4844 23.999H43.6508L43.7148 10.5311H44.2722L48.8955 22.4275C49.2701 23.3869 50.2569 23.999 51.4721 23.999H57.3198L57.3838 8.0824H53.2173L53.1625 21.8062ZM67.6627 12.9979L71.6739 8H76.4708L70.1115 16.0497L76.4708 23.9897H71.482L67.6627 19.1471L63.8526 23.9897H58.8638L65.214 16.0497L58.8638 8.01827H63.6607L67.6627 12.9979Z" fill="white"/>
<path d="M109.287 9.306V11.16H99.3325V9.306H103.131V7.524H105.507V9.306H109.287ZM102.465 14.922C102.465 15.786 103.221 16.254 104.319 16.254C105.435 16.254 106.173 15.786 106.173 14.922C106.173 14.076 105.435 13.608 104.319 13.608C103.221 13.608 102.465 14.076 102.465 14.922ZM105.507 17.928V19.242C106.857 19.152 108.207 19.062 109.503 18.882L109.683 20.61C106.065 21.276 102.231 21.294 99.2965 21.294L99.0085 19.368C100.251 19.368 101.655 19.368 103.131 19.332V17.928C101.349 17.586 100.197 16.47 100.197 14.922C100.197 13.068 101.889 11.808 104.319 11.808C106.731 11.808 108.423 13.068 108.423 14.922C108.423 16.47 107.271 17.586 105.507 17.928ZM110.367 7.47H112.743V24.048H110.367V7.47ZM123.937 17.1H127.051V7.47H129.427V20.034H127.051V18.72H123.937V17.1ZM120.751 9.756C119.635 9.756 118.861 10.188 118.861 10.998C118.861 11.808 119.635 12.222 120.751 12.222C121.849 12.222 122.623 11.808 122.623 10.998C122.623 10.188 121.849 9.756 120.751 9.756ZM120.751 13.95C118.321 13.95 116.629 12.762 116.629 10.998C116.629 9.234 118.321 8.028 120.751 8.028C123.163 8.028 124.873 9.234 124.873 10.998C124.873 12.762 123.163 13.95 120.751 13.95ZM119.869 21.87H129.787V23.76H117.493V18.828H119.797V16.614C118.339 16.686 116.953 16.704 115.711 16.704L115.405 14.814C118.429 14.796 122.461 14.76 125.953 14.31L126.115 16.002C124.819 16.218 123.487 16.362 122.155 16.47V19.602H119.869V21.87ZM138.138 8.748V11.16C138.138 14.148 139.308 17.154 141.972 18.468L140.532 20.34C138.804 19.458 137.634 17.856 136.95 15.876C136.23 17.982 134.988 19.728 133.116 20.646L131.694 18.72C134.484 17.406 135.744 14.238 135.744 11.16V8.748H138.138ZM147.426 13.842V15.822H145.014V24.048H142.638V7.47H145.014V13.842H147.426ZM164.772 21.96V20.484H158.508V21.96H164.772ZM164.772 18.684V17.1H167.13V23.85H156.15V17.1H158.508V18.684H164.772ZM157.842 14.094C159.066 14.094 159.948 13.356 159.948 12.114C159.948 10.872 159.066 10.134 157.842 10.134C156.636 10.134 155.754 10.872 155.754 12.114C155.754 13.356 156.636 14.094 157.842 14.094ZM164.754 7.47H167.13V16.38H164.754V13.05H162.126C161.676 14.85 159.984 16.074 157.842 16.074C155.358 16.074 153.486 14.418 153.486 12.114C153.486 9.81 155.358 8.154 157.842 8.154C159.948 8.154 161.64 9.36 162.108 11.124H164.754V7.47ZM180.719 13.104V10.152H173.897V13.104H180.719ZM183.041 8.28V14.976H171.557V8.28H183.041ZM184.841 16.74V18.63H178.469V24.048H176.093V18.63H169.829V16.74H184.841ZM192.165 10.728V15.426H195.549V10.728H192.165ZM195.045 20.268H201.399V22.176H186.387V20.268H192.669V17.316H187.647V15.426H189.807V10.728H187.557V8.838H200.157V10.728H197.907V15.426H200.103V17.316H195.045V20.268ZM214.43 16.218V12.852H211.802V10.98H214.43V7.47H216.806V16.218H214.43ZM211.91 13.734L212.09 15.588C209.912 15.894 208.058 15.912 204.998 15.912H203.702V8.388H211.352V10.224H206.06V11.25H210.848V12.978H206.06V14.058C208.436 14.04 210.038 14.004 211.91 13.734ZM208.238 22.14H217.274V23.922H205.898V19.53H214.448V18.63H205.862V16.848H216.806V21.204H208.238V22.14Z" fill="white"/>
</svg>
