<svg width="52" height="16" viewBox="0 0 52 16" fill="none" xmlns="http://www.w3.org/2000/svg">
<path fill-rule="evenodd" clip-rule="evenodd" d="M35.8662 3.20753H41.6068L41.5983 15.4942H46.2422L46.2508 3.20753H51.9914L52 0.5H35.8662V3.20753ZM12.8265 13.4466H12.3038L7.84841 2.04246C7.48855 1.15137 6.52892 0.585873 5.40649 0.585873H2.63899C1.14813 0.585873 0.0599767 1.50266 0.0599767 2.76218L0 15.503H3.90707L3.96705 2.87356H4.4897L8.82518 14.0293C9.17647 14.9289 10.1018 15.503 11.2414 15.503H16.725L16.785 0.577305H12.8779L12.8265 13.4466ZM26.4245 5.18677L30.1859 0.5H34.6842L28.7207 8.04852L34.6842 15.4942H30.006L26.4245 10.9531L22.8516 15.4942H18.1734L24.1282 8.04852L18.1734 0.517137H22.6716L26.4245 5.18677Z" fill="black"/>
</svg>
