<svg width="849" height="164" viewBox="0 0 849 164" fill="none" xmlns="http://www.w3.org/2000/svg">
<path d="M238.652 99.3891H236.278L216.044 47.9556C214.409 43.9367 210.051 41.3863 204.953 41.3863H192.385C185.614 41.3863 180.672 45.5211 180.672 51.2016L180.399 108.663H198.144L198.455 51.7039H200.829L220.519 102.017C222.114 106.074 226.317 108.663 231.492 108.663H256.396L256.669 41.3477H238.924L238.652 99.3891Z" fill="#E50038"/>
<path d="M336.634 98.7322L292.118 98.7708L292.157 80.8792L334.572 80.8406C335.739 80.8406 336.673 79.9132 336.673 78.7539V71.0253L292.157 71.064V51.0083L336.556 50.9697C337.724 50.9697 338.658 50.0423 338.658 48.883V41.0771L279.393 41.2317C274.101 41.2317 271.027 43.8208 271.027 48.3034L270.988 108.663H338.774V100.896C338.813 99.6983 337.841 98.7322 336.634 98.7322Z" fill="#E50038"/>
<path d="M846.081 98.7321L801.564 98.7707L801.603 80.8791L844.018 80.8404C845.186 80.8404 846.12 79.913 846.12 78.7537V71.0252L801.603 71.0638V51.0082L846.003 50.9696C847.17 50.9696 848.104 50.0421 848.104 48.8829V41.1543L788.879 41.1929C783.587 41.1929 780.513 43.782 780.513 48.2646L780.474 108.625H848.26V100.857C848.26 99.6981 847.287 98.7321 846.081 98.7321Z" fill="#E50038"/>
<path d="M429.48 53.2111H455.552L455.513 108.663H476.604L476.643 53.2111H502.714V41.0386H429.48V53.2111Z" fill="#E50038"/>
<path d="M587.817 67.0062V57.3455C587.817 54.4473 587.155 51.5104 585.56 49.0373C582.213 43.8591 575.987 40.9609 568.711 40.9609C568.711 40.9609 568.711 40.9609 568.672 40.9609L512.054 40.9996L512.015 108.624H533.144L533.183 82.9656H552.289L565.17 104.219C566.726 106.77 569.489 108.624 572.446 108.624H589.918L574.158 82.3087C582.408 80.5311 587.817 74.5029 587.817 67.0062ZM568.166 67.5858C568.166 70.5613 565.481 73.846 561.745 73.846L533.144 73.8846L533.183 50.9308L561.784 50.8921C563.613 50.8921 565.286 51.4331 566.454 52.3992C567.582 53.3266 568.205 54.5632 568.205 55.993L568.166 67.5858Z" fill="#E50038"/>
<path d="M746.62 40.8452H746.581L699.691 40.8839C694.399 40.8839 691.325 43.4729 691.325 47.9555L691.286 108.663H746.542C760.707 108.663 768.528 101.669 768.528 89.8829L768.567 59.0846C768.567 53.7519 767.01 49.5012 763.897 46.4098C760.123 42.7001 754.325 40.8452 746.62 40.8452ZM747.165 89.6124C747.165 94.636 742.651 98.2684 736.464 98.2684L712.377 98.3071L712.416 50.8151L736.542 50.7764C739.966 50.7764 742.923 51.8584 744.869 53.7906C746.387 55.2976 747.204 57.2298 747.204 59.3938L747.165 89.6124Z" fill="#E50038"/>
<path d="M648.754 40.9224H640.271H628.948C622.994 40.9224 619.219 43.3182 617.507 48.2645L596.728 108.663H596.261H617.39L625.679 84.4728H638.87H652.062L660.35 108.663H681.48L660.233 48.2645C658.443 43.3182 654.708 40.9224 648.754 40.9224ZM638.831 74.4643H629.064L637.002 52.4379C637.314 51.6264 637.859 51.2013 638.831 51.0468C639.804 51.2013 640.349 51.6264 640.66 52.3993L648.598 74.4643H638.831Z" fill="#E50038"/>
<path d="M403.681 41.0386L386.598 62.1762L369.554 41.0772H349.125L376.169 75.0829L349.125 108.663H370.371L386.598 88.1441L402.864 108.663H424.11L397.027 75.0829L424.11 41.0386H403.681Z" fill="#E50038"/>
<path d="M136.779 81.7684V50.6609V50.6223C136.779 41.0002 131.603 32.151 123.237 27.3207L82.5731 4.01907C74.2068 -0.772634 63.856 -0.772634 55.4898 4.01907H55.4509L14.748 27.3593L75.7634 63.2585L101.446 40.6524V133.086L123.276 120.643C131.642 115.851 136.818 106.963 136.818 97.3414V81.7684H136.779Z" fill="url(#paint0_linear_1679_51779)"/>
<path d="M1.20605 66.1955V97.3029V97.3416C1.20605 106.964 6.38146 115.813 14.7477 120.643L55.4505 143.983C63.8168 148.775 74.1676 148.775 82.5339 143.983H82.5728L124.093 120.179L62.2603 84.744L36.5778 107.35V14.9165L14.7477 27.3595C6.38146 32.1512 1.20605 41.039 1.20605 50.6611V66.1955Z" fill="url(#paint1_linear_1679_51779)"/>
<defs>
<linearGradient id="paint0_linear_1679_51779" x1="4.74084" y1="8.7161" x2="101.047" y2="73.5672" gradientUnits="userSpaceOnUse">
<stop stop-color="#2D1B40"/>
<stop offset="1" stop-color="#E60039"/>
</linearGradient>
<linearGradient id="paint1_linear_1679_51779" x1="131.445" y1="155.978" x2="22.8874" y2="64.4853" gradientUnits="userSpaceOnUse">
<stop stop-color="#2D1B40"/>
<stop offset="0.2692" stop-color="#6E113E"/>
<stop offset="0.5125" stop-color="#A20A3C"/>
<stop offset="0.7231" stop-color="#C7053A"/>
<stop offset="0.8926" stop-color="#DE0139"/>
<stop offset="1" stop-color="#E60039"/>
</linearGradient>
</defs>
</svg>
