<svg width="324" height="86" viewBox="0 0 324 86" fill="none" xmlns="http://www.w3.org/2000/svg">
<g clip-path="url(#clip0_1679_51860)">
<path d="M0.5 81.0674H322.807" stroke="#666666" stroke-width="0.5" stroke-miterlimit="10" stroke-dasharray="1.62 1.62"/>
<path d="M74.5166 20.6289H322.765" stroke="#666666" stroke-width="0.5" stroke-miterlimit="10" stroke-dasharray="1.62 1.62"/>
<path d="M74.517 0.483398L74.0762 79.8686" stroke="#666666" stroke-width="0.5" stroke-miterlimit="10" stroke-dasharray="1.62 1.62"/>
<path d="M98.1117 0.483398L97.6709 79.8686" stroke="#666666" stroke-width="0.5" stroke-miterlimit="10" stroke-dasharray="1.62 1.62"/>
<path d="M0.730469 79.8265L1.19229 0.483398H323.269L322.807 79.8686" stroke="#666666" stroke-width="0.5" stroke-miterlimit="10" stroke-dasharray="1.62 1.62"/>
<path d="M74.5166 59.2598H322.765" stroke="#666666" stroke-width="0.5" stroke-miterlimit="10" stroke-dasharray="1.62 1.62"/>
<path d="M113.708 36.2957V40.123C112.847 40.2282 111.903 40.3333 110.832 40.4385C109.783 40.5436 108.628 40.6277 107.369 40.6698C106.109 40.7329 104.682 40.7749 103.065 40.817C101.47 40.8591 99.6646 40.8801 97.6494 40.8801V22.6478H102.331V36.9266C103.968 36.9266 105.374 36.9056 106.55 36.8635C107.725 36.8214 108.88 36.7584 110.014 36.6742C111.147 36.5691 112.386 36.4639 113.708 36.2957ZM128.15 44.6653V59.2596H123.343V48.5137H101.638V44.6864H128.15V44.6653ZM120.614 21.1337V42.7096H115.975V31.3328H108.292V27.5055H115.975V21.1337H120.614ZM128.15 20.9023V42.7306H123.469V20.9023H128.15Z" fill="#E50038"/>
<path d="M169.756 53.35H133.461V49.4806H169.756V53.35ZM138.331 43.8869L135.56 40.4801C136.673 40.0596 137.848 39.5549 139.087 38.945C140.325 38.3352 141.543 37.6412 142.739 36.8421C143.936 36.043 145.006 35.1387 145.972 34.1714C146.938 33.204 147.693 32.1736 148.281 31.1222C148.848 30.0707 149.142 28.9562 149.142 27.8206V22.6895H154.18V27.7785C154.18 28.9562 154.495 30.0707 155.124 31.1432C155.754 32.2157 156.552 33.2461 157.517 34.2135C158.483 35.2018 159.575 36.085 160.75 36.8842C161.926 37.6833 163.164 38.3983 164.424 39.0081C165.683 39.618 166.838 40.1016 167.887 40.4381L165.033 43.8028C163.941 43.3822 162.765 42.8775 161.506 42.2676C160.246 41.6578 159.008 40.9638 157.79 40.1647C156.573 39.3656 155.46 38.4613 154.432 37.473C153.403 36.4846 152.521 35.4121 151.766 34.2765C151.136 35.2859 150.338 36.2953 149.373 37.2627C148.407 38.23 147.295 39.1343 146.098 39.9124C144.88 40.7115 143.642 41.4475 142.361 42.1415C141.081 42.8354 139.737 43.4242 138.331 43.8869Z" fill="#E50038"/>
<path d="M208.024 53.4343H171.708V49.6069H208.003V53.4343H208.024ZM203.72 43.8449H176.62V23.2363H203.238V27.0006H181.511V31.6901H203.259V35.4543H181.511V40.2069H203.72V43.8449Z" fill="#E50038"/>
<path d="M211.887 49.7965V34.1928H220.514V27.0849H211.761V23.3417H225.195V37.9991H216.61V45.8219C217.009 45.8219 217.366 45.8219 217.722 45.8219C218.079 45.8219 218.415 45.8219 218.751 45.8219C219.591 45.7799 220.409 45.7378 221.207 45.7168C222.005 45.6958 222.991 45.6537 224.125 45.5696C225.258 45.4855 226.581 45.3593 228.092 45.1911V49.0184C226.434 49.2497 224.713 49.4179 222.97 49.5231C221.228 49.6282 219.444 49.6913 217.596 49.7334C215.77 49.7754 213.86 49.7965 211.887 49.7965ZM231.157 57.8086V37.6416H226.434V33.604H231.157V21.1337H235.754V57.8086H231.157ZM238.546 59.1334V20.9023H243.143V59.1334H238.546Z" fill="#E50038"/>
<path d="M260.546 50.1119C258.447 50.1119 256.599 49.6072 255.004 48.5768C253.408 47.5463 252.191 46.0322 251.33 43.9924C250.47 41.9736 250.05 39.4711 250.05 36.506C250.05 33.4357 250.47 30.8912 251.309 28.8934C252.149 26.8957 253.388 25.4026 254.983 24.4142C256.578 23.4258 258.426 22.9211 260.504 22.9211C262.687 22.9211 264.555 23.4048 266.129 24.3932C267.683 25.3605 268.879 26.8746 269.677 28.8934C270.475 30.9122 270.895 33.4357 270.895 36.4639C270.895 39.4711 270.496 41.9736 269.656 43.9714C268.837 45.9691 267.662 47.5043 266.129 48.5557C264.597 49.5862 262.729 50.1119 260.546 50.1119ZM260.63 46.1584C261.931 46.1584 262.981 45.7589 263.778 44.9597C264.576 44.1606 265.164 43.0251 265.563 41.553C265.962 40.081 266.15 38.3776 266.15 36.4429C266.15 34.4451 265.941 32.7208 265.542 31.2908C265.143 29.8608 264.534 28.7252 263.715 27.9051C262.897 27.0849 261.868 26.6643 260.609 26.6643C259.328 26.6643 258.258 27.0639 257.397 27.842C256.515 28.6201 255.886 29.7346 255.466 31.1646C255.046 32.5946 254.836 34.361 254.836 36.4429C254.836 38.3355 255.046 40.0389 255.466 41.532C255.886 43.0251 256.515 44.1606 257.376 44.9597C258.216 45.7589 259.307 46.1584 260.63 46.1584ZM275.891 59.1334V20.9023H280.74V59.1334H275.891Z" fill="#E50038"/>
<path d="M322.764 53.3503H286.47V49.4809H322.764V53.3503ZM318.629 42.0786H291.424V23.4678H318.125V27.2951H296.189V38.2934H318.629V42.0786Z" fill="#E50038"/>
<path d="M74.2852 44.7499V27.8214V27.8003C74.2852 22.5641 71.4933 17.7484 66.9801 15.1197L45.0437 2.43911C40.5305 -0.168507 34.9467 -0.168507 30.4334 2.43911H30.4124L8.45508 15.1407L41.3701 34.6769L55.2247 22.3748V72.6766L67.0011 65.9052C71.5143 63.2976 74.3062 58.4609 74.3062 53.2246V44.7499H74.2852Z" fill="url(#paint0_linear_1679_51860)"/>
<path d="M1.15039 36.2749V53.2034V53.2244C1.15039 58.4607 3.94229 63.2764 8.45552 65.905L30.4129 78.6067C34.9261 81.2143 40.5099 81.2143 45.0231 78.6067H45.0441L67.4423 65.6527L34.0864 46.3689L20.2319 58.671V8.36914L8.45552 15.1405C3.94229 17.7482 1.15039 22.5849 1.15039 27.8211V36.2749Z" fill="url(#paint1_linear_1679_51860)"/>
</g>
<defs>
<linearGradient id="paint0_linear_1679_51860" x1="3.05663" y1="4.99521" x2="55.292" y2="39.8633" gradientUnits="userSpaceOnUse">
<stop stop-color="#2D1B40"/>
<stop offset="1" stop-color="#E60039"/>
</linearGradient>
<linearGradient id="paint1_linear_1679_51860" x1="71.4083" y1="85.1339" x2="12.4215" y2="35.8524" gradientUnits="userSpaceOnUse">
<stop stop-color="#2D1B40"/>
<stop offset="0.2692" stop-color="#6E113E"/>
<stop offset="0.5125" stop-color="#A20A3C"/>
<stop offset="0.7231" stop-color="#C7053A"/>
<stop offset="0.8926" stop-color="#DE0139"/>
<stop offset="1" stop-color="#E60039"/>
</linearGradient>
<clipPath id="clip0_1679_51860">
<rect width="323" height="85" fill="white" transform="translate(0.5 0.251953)"/>
</clipPath>
</defs>
</svg>
