<svg width="524" height="483" viewBox="0 0 524 483" fill="none" xmlns="http://www.w3.org/2000/svg">
<path d="M438.225 86.8418H451.032V338.502H438.225" stroke="#959595" stroke-width="1.28071" stroke-linecap="round"/>
<path d="M438.225 337.861H451.032V427.511H438.225" stroke="#959595" stroke-width="1.28071" stroke-linecap="round"/>
<path d="M425.42 436.479L425.42 449.286L329.366 449.286L329.366 436.479" stroke="#959595" stroke-width="1.28071" stroke-linecap="round"/>
<path d="M469.68 219.826L468.318 216.133H463.369L462.006 219.826H459.998L464.857 206.97H466.865L471.706 219.826H469.68ZM466.489 210.843C466.453 210.712 466.387 210.515 466.291 210.252C466.208 209.977 466.124 209.702 466.04 209.427C465.957 209.14 465.891 208.907 465.843 208.727C465.783 208.967 465.712 209.23 465.628 209.516C465.556 209.791 465.485 210.048 465.413 210.287C465.341 210.515 465.281 210.7 465.234 210.843L463.943 214.447H467.78L466.489 210.843ZM472.447 214.913C472.447 213.933 472.536 212.977 472.716 212.045C472.907 211.112 473.2 210.222 473.594 209.373C473.989 208.524 474.485 207.741 475.083 207.024H476.786C476.236 207.765 475.77 208.566 475.387 209.427C475.017 210.287 474.736 211.178 474.545 212.098C474.353 213.019 474.258 213.951 474.258 214.895C474.258 215.816 474.353 216.73 474.545 217.639C474.736 218.547 475.017 219.42 475.387 220.256C475.758 221.105 476.218 221.906 476.768 222.659H475.083C474.485 221.954 473.989 221.183 473.594 220.346C473.2 219.521 472.907 218.649 472.716 217.728C472.536 216.808 472.447 215.87 472.447 214.913ZM478.248 212.475V211.023H486.603V212.475H478.248ZM478.248 216.007V214.537H486.603V216.007H478.248ZM494.246 219.826H492.363V211.327C492.363 211.029 492.363 210.754 492.363 210.503C492.375 210.24 492.387 209.989 492.399 209.75C492.411 209.498 492.423 209.259 492.435 209.032C492.28 209.188 492.118 209.337 491.951 209.481C491.784 209.624 491.592 209.791 491.377 209.983L489.979 211.112L489.01 209.893L492.668 207.024H494.246V219.826ZM507.286 213.407C507.286 214.447 507.202 215.374 507.035 216.186C506.879 216.999 506.628 217.693 506.282 218.266C505.947 218.828 505.499 219.258 504.937 219.557C504.387 219.856 503.724 220.005 502.947 220.005C501.967 220.005 501.16 219.742 500.526 219.217C499.893 218.691 499.42 217.938 499.11 216.957C498.799 215.965 498.644 214.782 498.644 213.407C498.644 212.021 498.781 210.837 499.056 209.857C499.343 208.877 499.803 208.13 500.437 207.616C501.07 207.09 501.907 206.827 502.947 206.827C503.927 206.827 504.734 207.09 505.367 207.616C506.013 208.13 506.491 208.877 506.802 209.857C507.124 210.837 507.286 212.021 507.286 213.407ZM500.544 213.407C500.544 214.519 500.622 215.445 500.777 216.186C500.933 216.927 501.184 217.483 501.53 217.854C501.889 218.224 502.361 218.41 502.947 218.41C503.532 218.41 503.999 218.23 504.345 217.872C504.704 217.501 504.961 216.945 505.116 216.204C505.284 215.451 505.367 214.519 505.367 213.407C505.367 212.296 505.284 211.375 505.116 210.646C504.961 209.905 504.704 209.349 504.345 208.979C503.999 208.608 503.532 208.423 502.947 208.423C502.361 208.423 501.889 208.608 501.53 208.979C501.184 209.349 500.933 209.905 500.777 210.646C500.622 211.375 500.544 212.296 500.544 213.407ZM513.333 209.983C514.552 209.983 515.461 210.252 516.058 210.789C516.656 211.315 516.955 212.146 516.955 213.282V219.826H515.61L515.234 218.481H515.162C514.887 218.828 514.6 219.115 514.301 219.342C514.014 219.569 513.68 219.737 513.297 219.844C512.927 219.952 512.472 220.005 511.934 220.005C511.361 220.005 510.841 219.904 510.375 219.701C509.92 219.486 509.562 219.163 509.299 218.732C509.036 218.29 508.904 217.74 508.904 217.083C508.904 216.103 509.275 215.356 510.016 214.842C510.769 214.328 511.911 214.047 513.441 213.999L515.09 213.945V213.407C515.09 212.69 514.929 212.188 514.606 211.901C514.283 211.614 513.829 211.471 513.243 211.471C512.741 211.471 512.263 211.543 511.809 211.686C511.355 211.829 510.924 212.003 510.518 212.206L509.908 210.825C510.363 210.586 510.883 210.389 511.468 210.234C512.066 210.066 512.687 209.983 513.333 209.983ZM513.781 215.218C512.681 215.266 511.916 215.451 511.486 215.774C511.068 216.085 510.859 216.527 510.859 217.101C510.859 217.603 511.008 217.967 511.307 218.195C511.618 218.422 512.006 218.535 512.472 218.535C513.225 218.535 513.847 218.326 514.337 217.908C514.827 217.489 515.072 216.862 515.072 216.025V215.182L513.781 215.218ZM523.27 214.913C523.27 215.87 523.174 216.808 522.983 217.728C522.804 218.649 522.517 219.521 522.123 220.346C521.74 221.183 521.244 221.954 520.634 222.659H518.949C519.499 221.906 519.959 221.105 520.33 220.256C520.7 219.42 520.975 218.547 521.154 217.639C521.346 216.73 521.441 215.816 521.441 214.895C521.441 213.951 521.346 213.019 521.154 212.098C520.975 211.178 520.7 210.287 520.33 209.427C519.959 208.566 519.493 207.765 518.931 207.024H520.634C521.244 207.741 521.74 208.524 522.123 209.373C522.517 210.222 522.804 211.112 522.983 212.045C523.174 212.977 523.27 213.933 523.27 214.913Z" fill="black" fill-opacity="0.42"/>
<path d="M468.927 375.194C468.927 375.767 468.814 376.269 468.587 376.7C468.371 377.118 468.061 377.459 467.654 377.722C467.248 377.985 466.782 378.176 466.256 378.295V378.367C467.284 378.487 468.049 378.809 468.551 379.335C469.065 379.849 469.322 380.531 469.322 381.379C469.322 382.12 469.142 382.784 468.784 383.37C468.437 383.943 467.893 384.398 467.152 384.732C466.423 385.055 465.485 385.216 464.337 385.216C463.656 385.216 463.022 385.163 462.437 385.055C461.851 384.947 461.295 384.768 460.769 384.517V382.796C461.307 383.071 461.881 383.28 462.49 383.423C463.112 383.567 463.704 383.639 464.265 383.639C465.353 383.639 466.136 383.435 466.614 383.029C467.092 382.611 467.331 382.031 467.331 381.29C467.331 380.812 467.206 380.423 466.955 380.124C466.704 379.814 466.321 379.586 465.807 379.443C465.293 379.288 464.654 379.21 463.889 379.21H462.723V377.65H463.907C464.636 377.65 465.228 377.56 465.682 377.381C466.136 377.19 466.471 376.927 466.686 376.592C466.901 376.257 467.009 375.875 467.009 375.445C467.009 374.871 466.817 374.429 466.435 374.118C466.064 373.795 465.526 373.634 464.821 373.634C464.391 373.634 463.99 373.681 463.62 373.777C463.261 373.873 462.933 373.998 462.634 374.154C462.335 374.309 462.042 374.482 461.755 374.674L460.823 373.365C461.146 373.126 461.504 372.904 461.899 372.701C462.305 372.498 462.753 372.343 463.243 372.235C463.745 372.116 464.289 372.056 464.875 372.056C466.202 372.056 467.206 372.349 467.887 372.934C468.581 373.508 468.927 374.261 468.927 375.194ZM471.478 383.979C471.478 383.513 471.598 383.184 471.837 382.993C472.076 382.802 472.363 382.706 472.697 382.706C473.044 382.706 473.337 382.802 473.576 382.993C473.815 383.184 473.934 383.513 473.934 383.979C473.934 384.445 473.815 384.78 473.576 384.983C473.337 385.187 473.044 385.288 472.697 385.288C472.363 385.288 472.076 385.187 471.837 384.983C471.598 384.78 471.478 384.445 471.478 383.979ZM480.218 377.094C481.066 377.094 481.808 377.244 482.441 377.542C483.075 377.841 483.565 378.272 483.911 378.833C484.27 379.395 484.449 380.082 484.449 380.895C484.449 381.792 484.258 382.563 483.875 383.208C483.493 383.854 482.937 384.35 482.208 384.696C481.491 385.043 480.612 385.216 479.572 385.216C478.915 385.216 478.293 385.157 477.708 385.037C477.122 384.918 476.626 384.744 476.219 384.517V382.778C476.65 383.029 477.17 383.232 477.779 383.388C478.401 383.543 478.993 383.621 479.554 383.621C480.164 383.621 480.684 383.531 481.114 383.352C481.557 383.16 481.897 382.88 482.136 382.509C482.387 382.126 482.513 381.648 482.513 381.075C482.513 380.298 482.268 379.706 481.778 379.3C481.3 378.881 480.541 378.672 479.501 378.672C479.166 378.672 478.789 378.702 478.371 378.762C477.965 378.821 477.636 378.881 477.385 378.941L476.506 378.421L476.99 372.235H483.571V373.921H478.64L478.353 377.273C478.556 377.238 478.813 377.202 479.124 377.166C479.435 377.118 479.799 377.094 480.218 377.094ZM490.658 375.194C491.877 375.194 492.785 375.462 493.383 376C493.981 376.526 494.28 377.357 494.28 378.493V385.037H492.935L492.558 383.692H492.487C492.212 384.039 491.925 384.326 491.626 384.553C491.339 384.78 491.004 384.947 490.622 385.055C490.251 385.163 489.797 385.216 489.259 385.216C488.685 385.216 488.166 385.115 487.699 384.912C487.245 384.696 486.887 384.374 486.624 383.943C486.361 383.501 486.229 382.951 486.229 382.294C486.229 381.314 486.6 380.567 487.341 380.053C488.094 379.539 489.235 379.258 490.765 379.21L492.415 379.156V378.618C492.415 377.901 492.254 377.399 491.931 377.112C491.608 376.825 491.154 376.682 490.568 376.682C490.066 376.682 489.588 376.753 489.134 376.897C488.68 377.04 488.249 377.214 487.843 377.417L487.233 376.036C487.687 375.797 488.207 375.6 488.793 375.445C489.391 375.277 490.012 375.194 490.658 375.194ZM491.106 380.429C490.006 380.477 489.241 380.662 488.811 380.985C488.393 381.296 488.183 381.738 488.183 382.312C488.183 382.814 488.333 383.178 488.632 383.405C488.942 383.633 489.331 383.746 489.797 383.746C490.55 383.746 491.172 383.537 491.662 383.119C492.152 382.7 492.397 382.073 492.397 381.236V380.393L491.106 380.429Z" fill="black" fill-opacity="0.42"/>
<path d="M372.873 467.408C372.873 467.982 372.759 468.484 372.532 468.914C372.317 469.333 372.006 469.674 371.599 469.937C371.193 470.199 370.727 470.391 370.201 470.51V470.582C371.229 470.702 371.994 471.024 372.496 471.55C373.01 472.064 373.267 472.746 373.267 473.594C373.267 474.335 373.088 474.999 372.729 475.584C372.382 476.158 371.839 476.612 371.097 476.947C370.368 477.27 369.43 477.431 368.282 477.431C367.601 477.431 366.968 477.377 366.382 477.27C365.796 477.162 365.24 476.983 364.714 476.732V475.011C365.252 475.286 365.826 475.495 366.436 475.638C367.057 475.782 367.649 475.853 368.211 475.853C369.298 475.853 370.081 475.65 370.56 475.244C371.038 474.825 371.277 474.246 371.277 473.505C371.277 473.026 371.151 472.638 370.9 472.339C370.649 472.028 370.267 471.801 369.753 471.658C369.239 471.502 368.599 471.425 367.834 471.425H366.669V469.865H367.852C368.581 469.865 369.173 469.775 369.627 469.596C370.081 469.405 370.416 469.142 370.631 468.807C370.846 468.472 370.954 468.09 370.954 467.659C370.954 467.086 370.763 466.643 370.38 466.333C370.01 466.01 369.472 465.848 368.767 465.848C368.336 465.848 367.936 465.896 367.565 465.992C367.207 466.088 366.878 466.213 366.579 466.368C366.28 466.524 365.987 466.697 365.701 466.888L364.768 465.58C365.091 465.34 365.449 465.119 365.844 464.916C366.25 464.713 366.699 464.558 367.189 464.45C367.691 464.33 368.235 464.271 368.82 464.271C370.147 464.271 371.151 464.563 371.833 465.149C372.526 465.723 372.873 466.476 372.873 467.408ZM375.423 476.194C375.423 475.728 375.543 475.399 375.782 475.208C376.021 475.017 376.308 474.921 376.643 474.921C376.989 474.921 377.282 475.017 377.521 475.208C377.76 475.399 377.88 475.728 377.88 476.194C377.88 476.66 377.76 476.995 377.521 477.198C377.282 477.401 376.989 477.503 376.643 477.503C376.308 477.503 376.021 477.401 375.782 477.198C375.543 476.995 375.423 476.66 375.423 476.194ZM384.217 464.271C384.97 464.271 385.639 464.39 386.225 464.629C386.811 464.856 387.271 465.197 387.606 465.651C387.952 466.105 388.126 466.673 388.126 467.355C388.126 467.869 388.018 468.317 387.803 468.699C387.588 469.082 387.301 469.423 386.942 469.721C386.584 470.008 386.183 470.259 385.741 470.474C386.243 470.725 386.703 471.012 387.122 471.335C387.552 471.646 387.893 472.01 388.144 472.429C388.407 472.847 388.538 473.349 388.538 473.935C388.538 474.652 388.359 475.274 388 475.8C387.653 476.314 387.157 476.714 386.512 477.001C385.866 477.288 385.113 477.431 384.253 477.431C383.332 477.431 382.543 477.294 381.886 477.019C381.24 476.744 380.75 476.355 380.416 475.853C380.081 475.339 379.914 474.718 379.914 473.989C379.914 473.403 380.033 472.895 380.272 472.465C380.511 472.034 380.828 471.664 381.223 471.353C381.617 471.042 382.047 470.779 382.514 470.564C382.107 470.325 381.737 470.056 381.402 469.757C381.067 469.446 380.804 469.094 380.613 468.699C380.422 468.305 380.326 467.851 380.326 467.337C380.326 466.667 380.499 466.111 380.846 465.669C381.193 465.215 381.659 464.868 382.245 464.629C382.842 464.39 383.5 464.271 384.217 464.271ZM381.743 473.953C381.743 474.539 381.946 475.023 382.352 475.405C382.759 475.776 383.38 475.961 384.217 475.961C384.767 475.961 385.221 475.877 385.58 475.71C385.95 475.531 386.231 475.292 386.422 474.993C386.614 474.682 386.709 474.329 386.709 473.935C386.709 473.54 386.602 473.194 386.386 472.895C386.183 472.596 385.896 472.333 385.526 472.106C385.167 471.867 384.749 471.652 384.271 471.461L384.002 471.353C383.512 471.556 383.099 471.783 382.765 472.034C382.43 472.285 382.173 472.566 381.994 472.877C381.826 473.188 381.743 473.546 381.743 473.953ZM384.199 465.759C383.613 465.759 383.123 465.902 382.729 466.189C382.346 466.476 382.155 466.894 382.155 467.444C382.155 467.839 382.251 468.173 382.442 468.448C382.633 468.723 382.89 468.962 383.213 469.166C383.536 469.357 383.888 469.542 384.271 469.721C384.653 469.554 384.994 469.375 385.293 469.183C385.592 468.98 385.831 468.741 386.01 468.466C386.189 468.179 386.279 467.839 386.279 467.444C386.279 466.894 386.088 466.476 385.705 466.189C385.323 465.902 384.821 465.759 384.199 465.759ZM394.603 467.408C395.822 467.408 396.731 467.677 397.328 468.215C397.926 468.741 398.225 469.572 398.225 470.708V477.252H396.88L396.504 475.907H396.432C396.157 476.254 395.87 476.541 395.571 476.768C395.284 476.995 394.95 477.162 394.567 477.27C394.197 477.377 393.742 477.431 393.205 477.431C392.631 477.431 392.111 477.33 391.645 477.126C391.19 476.911 390.832 476.589 390.569 476.158C390.306 475.716 390.174 475.166 390.174 474.509C390.174 473.528 390.545 472.781 391.286 472.267C392.039 471.753 393.181 471.473 394.711 471.425L396.36 471.371V470.833C396.36 470.116 396.199 469.614 395.876 469.327C395.553 469.04 395.099 468.897 394.513 468.897C394.011 468.897 393.533 468.968 393.079 469.112C392.625 469.255 392.195 469.428 391.788 469.632L391.178 468.251C391.633 468.012 392.153 467.815 392.738 467.659C393.336 467.492 393.958 467.408 394.603 467.408ZM395.051 472.644C393.952 472.692 393.187 472.877 392.756 473.2C392.338 473.511 392.129 473.953 392.129 474.527C392.129 475.029 392.278 475.393 392.577 475.62C392.888 475.847 393.276 475.961 393.742 475.961C394.496 475.961 395.117 475.752 395.607 475.333C396.097 474.915 396.342 474.288 396.342 473.451V472.608L395.051 472.644Z" fill="black" fill-opacity="0.42"/>
<path d="M25.0627 426.231H2.78223C3.11231 402.161 2.78223 353.111 2.78223 349.476C4.36662 340.184 12.1895 337.861 15.6554 337.861H37.9359C43.4812 339.073 46.8481 344.089 47.8383 346.446L74.0798 413.101H77.0505V337.861H98.8358V426.231H64.1773C57.2126 426.231 54.2749 417.646 53.7798 416.636L28.5286 351.495H25.0627V426.231Z" fill="#DBCFCF"/>
<path d="M25.0627 86.8411H2.78223C3.11231 63.4687 2.78223 15.8412 2.78223 12.3108C4.36662 3.28872 12.1895 1.0332 15.6554 1.0332H37.9359C43.4812 2.21 46.8481 7.08062 47.8383 9.36883L74.0798 74.0925H77.0505V1.0332H98.8358V86.8411H64.1773C57.2126 86.8411 54.2749 78.5055 53.7798 77.5248L28.5286 14.2721H25.0627V86.8411Z" fill="#DBCFCF"/>
<path d="M351.646 426.231H329.365C329.695 402.161 329.365 353.111 329.365 349.476C330.95 340.184 338.773 337.861 342.238 337.861H364.519C370.064 339.073 373.431 344.089 374.421 346.446L400.663 413.101H403.633V337.861H425.419V426.231H390.76C383.796 426.231 380.858 417.646 380.363 416.636L355.112 351.495H351.646V426.231Z" fill="#DBCFCF"/>
<path d="M351.646 86.8411H329.365C329.695 63.4687 329.365 15.8412 329.365 12.3108C330.95 3.28872 338.773 1.0332 342.238 1.0332H364.519C370.064 2.21 373.431 7.08062 374.421 9.36883L400.663 74.0925H403.633V1.0332H425.419V86.8411H390.76C383.796 86.8411 380.858 78.5055 380.363 77.5248L355.112 14.2721H351.646V86.8411Z" fill="#DBCFCF"/>
<path d="M3.42285 337.861L424.138 337.861" stroke="#DBCFCF" stroke-width="1.28071" stroke-linecap="round" stroke-dasharray="3.84 3.84"/>
<path d="M1.50195 87.0967H425.703" stroke="#DBCFCF" stroke-width="1.28071" stroke-linecap="round" stroke-dasharray="3.84 3.84"/>
<path d="M98.8037 424.95L98.8037 0.748649" stroke="#DBCFCF" stroke-width="1.28071" stroke-linecap="round" stroke-dasharray="3.84 3.84"/>
<path d="M329.115 424.95L329.115 0.748649" stroke="#DBCFCF" stroke-width="1.28071" stroke-linecap="round" stroke-dasharray="3.84 3.84"/>
<rect x="2.99496" y="1.24594" width="422.21" height="425.197" stroke="#DBCFCF" stroke-width="0.995778"/>
<path d="M328.422 225.966V172.993V172.927C328.422 156.541 319.67 141.472 305.522 133.246L236.69 93.4998C222.542 85.3399 205.037 85.3399 190.889 93.4998H190.824L121.991 133.246L225.174 194.379L268.605 155.883V313.289L305.522 292.1C319.67 283.94 328.422 268.805 328.422 252.42V225.966Z" fill="url(#paint0_linear_1679_51885)"/>
<path d="M99.0889 199.378V252.352V252.417C99.0889 268.803 107.841 283.872 121.989 292.098L190.821 331.844C204.97 340.004 222.474 340.004 236.622 331.844H236.688L306.902 291.308L202.337 230.965L158.906 269.461V112.055L121.989 133.244C107.841 141.47 99.0889 156.539 99.0889 172.925V199.378Z" fill="url(#paint1_linear_1679_51885)"/>
<defs>
<linearGradient id="paint0_linear_1679_51885" x1="105.081" y1="101.512" x2="268.65" y2="210.892" gradientUnits="userSpaceOnUse">
<stop stop-color="#2D1B40"/>
<stop offset="1" stop-color="#E60039"/>
</linearGradient>
<linearGradient id="paint1_linear_1679_51885" x1="319.348" y1="352.283" x2="134.707" y2="197.746" gradientUnits="userSpaceOnUse">
<stop stop-color="#2D1B40"/>
<stop offset="0.2692" stop-color="#6E113E"/>
<stop offset="0.5125" stop-color="#A20A3C"/>
<stop offset="0.7231" stop-color="#C7053A"/>
<stop offset="0.8926" stop-color="#DE0139"/>
<stop offset="1" stop-color="#E60039"/>
</linearGradient>
</defs>
</svg>
