<svg width="449" height="88" viewBox="0 0 449 88" fill="none" xmlns="http://www.w3.org/2000/svg">
<g clip-path="url(#clip0_1679_51814)">
<path d="M0.5 87.0469H447.843" stroke="#666666" stroke-width="0.5" stroke-miterlimit="10" stroke-dasharray="1.62 1.62"/>
<path d="M0.5 73.4561H447.843" stroke="#666666" stroke-width="0.5" stroke-miterlimit="10" stroke-dasharray="1.62 1.62"/>
<path d="M0.5 79.0312H72.0798" stroke="#666666" stroke-width="0.5" stroke-miterlimit="10" stroke-dasharray="1.62 1.62"/>
<path d="M72.9014 21.9199H447.802" stroke="#666666" stroke-width="0.5" stroke-miterlimit="10" stroke-dasharray="1.62 1.62"/>
<path d="M72.9009 0.477539L72.4697 85.8786" stroke="#666666" stroke-width="0.5" stroke-miterlimit="10" stroke-dasharray="1.62 1.62"/>
<path d="M95.981 0.477539L95.5498 85.8786" stroke="#666666" stroke-width="0.5" stroke-miterlimit="10" stroke-dasharray="1.62 1.62"/>
<path d="M0.725586 85.8376L1.17732 0.477539H448.274L447.843 85.8786" stroke="#666666" stroke-width="0.5" stroke-miterlimit="10" stroke-dasharray="1.62 1.62"/>
<path d="M72.9014 57.7734H447.802" stroke="#666666" stroke-width="0.216" stroke-miterlimit="10" stroke-dasharray="1.62 1.62"/>
<path d="M152.428 73.5381H160.21V74.9936H154.214V78.3145H159.614V79.7494H154.214V85.0998H152.428V73.5381Z" fill="#E50038"/>
<path d="M165.384 73.5176H167.211L171.914 85.0793H169.881L168.69 82.0864H163.7L162.55 85.0793H160.6L165.384 73.5176ZM164.255 80.6924H168.176L166.205 75.547L164.255 80.6924Z" fill="#E50038"/>
<path d="M173.331 84.2798L173.865 82.7423C174.748 83.2753 176.247 83.7468 177.438 83.7468C179.163 83.7468 180.251 82.9473 180.251 81.8403C180.251 80.8359 179.594 80.3234 178.054 80.0159L176.678 79.7084C174.994 79.3599 173.516 78.3759 173.516 76.531C173.516 74.7475 175.117 73.374 177.807 73.374C179.491 73.374 181.031 73.866 181.791 74.399L181.195 75.793C180.415 75.3215 179.224 74.85 177.807 74.85C176.329 74.85 175.364 75.465 175.364 76.4285C175.364 77.3919 176.144 78.0069 177.438 78.2734L178.731 78.5194C180.867 78.9704 182.099 79.8314 182.099 81.7173C182.099 83.7878 180.148 85.2843 177.499 85.2843C175.939 85.3048 174.214 84.7718 173.331 84.2798Z" fill="#E50038"/>
<path d="M189.819 85.0998H187.991V75.0141H184.028V73.5381H193.802V75.0141H189.819V85.0998Z" fill="#E50038"/>
<path d="M209.696 85.0998H207.868V75.0141H203.905V73.5381H213.679V75.0141H209.696V85.0998Z" fill="#E50038"/>
<path d="M216.02 73.5381H220.208C223.186 73.5381 224.685 74.8091 224.685 76.941C224.685 78.54 223.555 79.7904 222.036 80.2209L225.547 85.0793H223.412L220.332 80.5284H217.785V85.0793H216.02V73.5381ZM220.065 79.155C221.872 79.155 222.857 78.3145 222.857 76.9615C222.857 75.6905 221.913 74.9321 220.085 74.9321H217.765V79.155H220.065Z" fill="#E50038"/>
<path d="M227.354 80.4464V73.4971H229.141V80.2004C229.141 82.7014 230.291 83.7263 232.139 83.7263C233.966 83.7263 234.972 82.7424 234.972 80.2004V73.4971H236.779V80.3849C236.779 83.6033 235.013 85.2023 232.098 85.2023C229.223 85.2228 227.354 83.6033 227.354 80.4464Z" fill="#E50038"/>
<path d="M239.182 84.2798L239.716 82.7423C240.598 83.2753 242.097 83.7468 243.288 83.7468C245.013 83.7468 246.101 82.9473 246.101 81.8403C246.101 80.8359 245.444 80.3234 243.904 80.0159L242.529 79.7084C240.845 79.3599 239.366 78.3759 239.366 76.531C239.366 74.7475 240.968 73.374 243.658 73.374C245.342 73.374 246.882 73.866 247.641 74.399L247.046 75.793C246.266 75.3215 245.075 74.85 243.658 74.85C242.18 74.85 241.214 75.465 241.214 76.4285C241.214 77.3919 241.995 78.0069 243.288 78.2734L244.582 78.5194C246.717 78.9704 247.949 79.8314 247.949 81.7173C247.949 83.7878 245.999 85.2843 243.35 85.2843C241.789 85.3048 240.085 84.7718 239.182 84.2798Z" fill="#E50038"/>
<path d="M255.67 85.0998H253.843V75.0141H249.88V73.5381H259.654V75.0141H255.65V85.0998H255.67Z" fill="#E50038"/>
<path d="M265.485 80.6924L261.009 73.5176H263.042L266.471 79.1754L269.756 73.5176H271.707L267.333 80.6924V85.0793H265.506V80.6924H265.485Z" fill="#E50038"/>
<path d="M278.647 81.8813C278.647 80.2619 279.797 79.2574 281.399 78.5194C280.66 77.6994 280.208 76.8999 280.208 76.0595C280.208 74.2145 281.769 73.3535 283.473 73.3535C285.218 73.3535 286.532 74.2965 286.532 75.834C286.532 77.3509 285.28 78.2529 283.842 78.8884L286.532 81.8198C286.881 81.3278 287.128 80.3439 287.189 79.4829H288.709C288.606 80.6924 288.196 81.9633 287.538 82.9063L289.489 84.9768H287.395L286.43 84.0133C285.547 84.7308 284.253 85.2022 282.98 85.2022C280.352 85.2022 278.647 83.9928 278.647 81.8813ZM285.526 83.0293L282.241 79.4829C281.235 79.9749 280.454 80.6104 280.454 81.7173C280.454 83.0498 281.399 83.9108 283.062 83.9108C284.048 83.9108 284.91 83.6033 285.526 83.0293ZM283.021 77.9864C284.068 77.5149 284.89 76.9409 284.89 75.957C284.89 75.1165 284.335 74.604 283.473 74.604C282.61 74.604 281.933 75.0755 281.933 76.0185C281.933 76.7154 282.323 77.2074 283.021 77.9864Z" fill="#E50038"/>
<path d="M296.881 73.5381H298.708V85.0998H296.881V73.5381Z" fill="#E50038"/>
<path d="M301.686 73.5381H303.924L309.447 82.5374V73.5381H311.213V85.0998H309.057L303.431 75.8955V85.0998H301.686V73.5381Z" fill="#E50038"/>
<path d="M314.108 73.5381H316.347L321.87 82.5374V73.5381H323.636V85.0998H321.48L315.854 75.8955V85.0998H314.108V73.5381Z" fill="#E50038"/>
<path d="M326.121 79.4214V79.2369C326.121 75.465 328.688 73.374 331.768 73.374C334.807 73.374 337.394 75.3625 337.394 79.2164V79.4214C337.394 83.2138 334.868 85.3253 331.727 85.3253C328.626 85.3253 326.121 83.2548 326.121 79.4214ZM335.525 79.5239V79.0524C335.525 76.4285 333.883 74.8705 331.747 74.8705C329.673 74.8705 327.99 76.4285 327.99 79.0319V79.5034C327.99 82.2503 329.489 83.8698 331.768 83.8698C334.026 83.8493 335.525 82.1888 335.525 79.5239Z" fill="#E50038"/>
<path d="M338.852 73.5381H340.884L344.519 83.1729L348.153 73.5381H350.145L345.525 85.1203H343.451L338.852 73.5381Z" fill="#E50038"/>
<path d="M354.683 73.5176H356.51L361.212 85.0793H359.18L357.989 82.0864H352.999L351.849 85.0793H349.898L354.683 73.5176ZM353.533 80.6924H357.455L355.484 75.547L353.533 80.6924Z" fill="#E50038"/>
<path d="M366.9 85.0998H365.072V75.0141H361.109V73.5381H370.883V75.0141H366.9V85.0998Z" fill="#E50038"/>
<path d="M373.307 73.5381H375.134V85.0998H373.307V73.5381Z" fill="#E50038"/>
<path d="M377.331 73.5381H379.364L382.998 83.1729L386.633 73.5381H388.624L384.004 85.1203H381.931L377.331 73.5381Z" fill="#E50038"/>
<path d="M390.555 73.5381H398.255V74.9936H392.341V78.3145H397.7V79.7494H392.341V83.6444H398.357V85.0998H390.555V73.5381Z" fill="#E50038"/>
<path d="M195.507 86.3093L196.123 87.0473C196.78 86.5143 197.396 85.7558 197.396 84.9153V83.1729H195.076V85.0998H196.206C196.185 85.5303 195.877 86.0223 195.507 86.3093Z" fill="#E50038"/>
<path d="M126.432 52.9768H125.179L114.502 25.6919C113.64 23.56 111.34 22.207 108.65 22.207H102.018C98.4448 22.207 95.8371 24.4005 95.8371 27.4139L95.6934 57.8967H105.057L105.221 27.6804H106.473L116.863 54.3708C117.705 56.5232 119.923 57.8967 122.654 57.8967H135.795L135.939 22.1865H126.576L126.432 52.9768Z" fill="#E50038"/>
<path d="M178.135 52.6283L154.645 52.6488L154.665 43.1575L177.047 43.137C177.663 43.137 178.156 42.645 178.156 42.03V37.9301L154.665 37.9506V27.3113L178.094 27.2908C178.71 27.2908 179.203 26.7989 179.203 26.1839V22.043L147.93 22.125C145.138 22.125 143.516 23.4984 143.516 25.8764L143.495 57.8967H179.264V53.7762C179.285 53.1408 178.772 52.6283 178.135 52.6283Z" fill="#E50038"/>
<path d="M446.96 52.6283L423.47 52.6488L423.49 43.1575L445.872 43.137C446.488 43.137 446.981 42.645 446.981 42.03V37.9301L423.49 37.9506V27.3114L446.919 27.2909C447.535 27.2909 448.028 26.7989 448.028 26.1839V22.084L416.776 22.1045C413.983 22.1045 412.361 23.478 412.361 25.8559L412.341 57.8762H448.11V53.7558C448.11 53.1408 447.597 52.6283 446.96 52.6283Z" fill="#E50038"/>
<path d="M227.128 28.4798H240.885L240.865 57.8966H251.994L252.015 28.4798H265.772V22.0225H227.128V28.4798Z" fill="#E50038"/>
<path d="M310.679 35.7981V30.6732C310.679 29.1358 310.33 27.5778 309.488 26.2658C307.722 23.5189 304.437 21.9814 300.597 21.9814C300.597 21.9814 300.597 21.9814 300.576 21.9814L270.7 22.0019L270.68 57.8761H281.829L281.85 44.2644H291.932L298.728 55.5392C299.55 56.8921 301.008 57.8761 302.568 57.8761H311.788L303.472 43.9159C307.825 42.973 310.679 39.775 310.679 35.7981ZM300.31 36.1056C300.31 37.6841 298.893 39.4265 296.922 39.4265L281.829 39.447L281.85 27.2703L296.942 27.2498C297.907 27.2498 298.79 27.5368 299.406 28.0493C300.002 28.5413 300.33 29.1973 300.33 29.9558L300.31 36.1056Z" fill="#E50038"/>
<path d="M394.476 21.9199H394.455L369.713 21.9404C366.92 21.9404 365.298 23.3139 365.298 25.6918L365.277 57.8966H394.435C401.909 57.8966 406.036 54.1862 406.036 47.9338L406.057 31.5957C406.057 28.7668 405.236 26.5118 403.593 24.8719C401.601 22.9039 398.542 21.9199 394.476 21.9199ZM394.763 47.7903C394.763 50.4553 392.382 52.3822 389.117 52.3822L376.407 52.4027L376.427 27.2088L389.158 27.1883C390.965 27.1883 392.525 27.7623 393.552 28.7873C394.353 29.5867 394.784 30.6117 394.784 31.7597L394.763 47.7903Z" fill="#E50038"/>
<path d="M342.834 21.9609H338.358H332.383C329.241 21.9609 327.25 23.2319 326.346 25.8558L315.381 57.8966H315.135H326.284L330.658 45.0639H337.619H344.58L348.953 57.8966H360.103L348.892 25.8558C347.947 23.2319 345.976 21.9609 342.834 21.9609ZM337.598 39.7545H332.445L336.633 28.0698C336.798 27.6393 337.085 27.4138 337.598 27.3318C338.112 27.4138 338.399 27.6393 338.564 28.0493L342.752 39.7545H337.598Z" fill="#E50038"/>
<path d="M213.515 22.0225L204.5 33.2357L195.507 22.043H184.727L198.997 40.0825L184.727 57.8966H195.938L204.5 47.0114L213.083 57.8966H224.295L210.003 40.0825L224.295 22.0225H213.515Z" fill="#E50038"/>
<path d="M72.6753 43.629V27.1269V27.1064C72.6753 22.002 69.9443 17.3077 65.5296 14.7452L44.0721 2.384C39.6574 -0.157946 34.1955 -0.157946 29.7808 2.384H29.7603L8.28223 14.7657L40.4788 33.8098L54.0309 21.8176V70.8524L65.5502 64.2516C69.9649 61.7096 72.6958 56.9947 72.6958 51.8904V43.629H72.6753Z" fill="url(#paint0_linear_1679_51814)"/>
<path d="M1.13672 35.3679V51.87V51.8905C1.13672 56.9949 3.86767 61.6893 8.28238 64.2518L29.7604 76.6335C34.1751 79.1754 39.637 79.1754 44.0517 76.6335H44.0723L65.9815 64.0058L33.3538 45.2077L19.8017 57.1999V8.16504L8.28238 14.7659C3.86767 17.3078 1.13672 22.0227 1.13672 27.1271V35.3679Z" fill="url(#paint1_linear_1679_51814)"/>
</g>
<defs>
<linearGradient id="paint0_linear_1679_51814" x1="3.00162" y1="4.87571" x2="53.9883" y2="39.0277" gradientUnits="userSpaceOnUse">
<stop stop-color="#2D1B40"/>
<stop offset="1" stop-color="#E60039"/>
</linearGradient>
<linearGradient id="paint1_linear_1679_51814" x1="69.8611" y1="82.9965" x2="12.3252" y2="34.7616" gradientUnits="userSpaceOnUse">
<stop stop-color="#2D1B40"/>
<stop offset="0.2692" stop-color="#6E113E"/>
<stop offset="0.5125" stop-color="#A20A3C"/>
<stop offset="0.7231" stop-color="#C7053A"/>
<stop offset="0.8926" stop-color="#DE0139"/>
<stop offset="1" stop-color="#E60039"/>
</linearGradient>
<clipPath id="clip0_1679_51814">
<rect width="448" height="87" fill="white" transform="translate(0.5 0.251953)"/>
</clipPath>
</defs>
</svg>
