<svg width="219" height="32" viewBox="0 0 219 32" fill="none" xmlns="http://www.w3.org/2000/svg">
<path fill-rule="evenodd" clip-rule="evenodd" d="M77.7323 10.3873H83.8541L83.845 23.4897H88.7972L88.8063 10.3873H94.9281L94.9373 7.5H77.7323V10.3873ZM53.1625 21.3062H52.6051L47.8539 9.14482C47.4701 8.19457 46.4468 7.59153 45.2498 7.59153H42.2986C40.7087 7.59153 39.5483 8.56919 39.5483 9.91233L39.4844 23.499H43.6508L43.7148 10.0311H44.2722L48.8955 21.9275C49.2701 22.8869 50.2569 23.499 51.4721 23.499H57.3198L57.3838 7.5824H53.2173L53.1625 21.3062ZM67.6627 12.4979L71.6739 7.5H76.4708L70.1115 15.5497L76.4708 23.4897H71.482L67.6627 18.6471L63.8526 23.4897H58.8638L65.214 15.5497L58.8638 7.51827H63.6607L67.6627 12.4979Z" fill="#E50038"/>
<path d="M109.287 8.806V10.66H99.3325V8.806H103.131V7.024H105.507V8.806H109.287ZM102.465 14.422C102.465 15.286 103.221 15.754 104.319 15.754C105.435 15.754 106.173 15.286 106.173 14.422C106.173 13.576 105.435 13.108 104.319 13.108C103.221 13.108 102.465 13.576 102.465 14.422ZM105.507 17.428V18.742C106.857 18.652 108.207 18.562 109.503 18.382L109.683 20.11C106.065 20.776 102.231 20.794 99.2965 20.794L99.0085 18.868C100.251 18.868 101.655 18.868 103.131 18.832V17.428C101.349 17.086 100.197 15.97 100.197 14.422C100.197 12.568 101.889 11.308 104.319 11.308C106.731 11.308 108.423 12.568 108.423 14.422C108.423 15.97 107.271 17.086 105.507 17.428ZM110.367 6.97H112.743V23.548H110.367V6.97ZM123.937 16.6H127.051V6.97H129.427V19.534H127.051V18.22H123.937V16.6ZM120.751 9.256C119.635 9.256 118.861 9.688 118.861 10.498C118.861 11.308 119.635 11.722 120.751 11.722C121.849 11.722 122.623 11.308 122.623 10.498C122.623 9.688 121.849 9.256 120.751 9.256ZM120.751 13.45C118.321 13.45 116.629 12.262 116.629 10.498C116.629 8.734 118.321 7.528 120.751 7.528C123.163 7.528 124.873 8.734 124.873 10.498C124.873 12.262 123.163 13.45 120.751 13.45ZM119.869 21.37H129.787V23.26H117.493V18.328H119.797V16.114C118.339 16.186 116.953 16.204 115.711 16.204L115.405 14.314C118.429 14.296 122.461 14.26 125.953 13.81L126.115 15.502C124.819 15.718 123.487 15.862 122.155 15.97V19.102H119.869V21.37ZM138.138 8.248V10.66C138.138 13.648 139.308 16.654 141.972 17.968L140.532 19.84C138.804 18.958 137.634 17.356 136.95 15.376C136.23 17.482 134.988 19.228 133.116 20.146L131.694 18.22C134.484 16.906 135.744 13.738 135.744 10.66V8.248H138.138ZM147.426 13.342V15.322H145.014V23.548H142.638V6.97H145.014V13.342H147.426ZM164.772 21.46V19.984H158.508V21.46H164.772ZM164.772 18.184V16.6H167.13V23.35H156.15V16.6H158.508V18.184H164.772ZM157.842 13.594C159.066 13.594 159.948 12.856 159.948 11.614C159.948 10.372 159.066 9.634 157.842 9.634C156.636 9.634 155.754 10.372 155.754 11.614C155.754 12.856 156.636 13.594 157.842 13.594ZM164.754 6.97H167.13V15.88H164.754V12.55H162.126C161.676 14.35 159.984 15.574 157.842 15.574C155.358 15.574 153.486 13.918 153.486 11.614C153.486 9.31 155.358 7.654 157.842 7.654C159.948 7.654 161.64 8.86 162.108 10.624H164.754V6.97ZM180.719 12.604V9.652H173.897V12.604H180.719ZM183.041 7.78V14.476H171.557V7.78H183.041ZM184.841 16.24V18.13H178.469V23.548H176.093V18.13H169.829V16.24H184.841ZM192.165 10.228V14.926H195.549V10.228H192.165ZM195.045 19.768H201.399V21.676H186.387V19.768H192.669V16.816H187.647V14.926H189.807V10.228H187.557V8.338H200.157V10.228H197.907V14.926H200.103V16.816H195.045V19.768ZM214.43 15.718V12.352H211.802V10.48H214.43V6.97H216.806V15.718H214.43ZM211.91 13.234L212.09 15.088C209.912 15.394 208.058 15.412 204.998 15.412H203.702V7.888H211.352V9.724H206.06V10.75H210.848V12.478H206.06V13.558C208.436 13.54 210.038 13.504 211.91 13.234ZM208.238 21.64H217.274V23.422H205.898V19.03H214.448V18.13H205.862V16.348H216.806V20.704H208.238V21.64Z" fill="#E50038"/>
<path d="M28.485 17.6515V11.0716V11.0634C28.485 9.02817 27.3979 7.15637 25.6405 6.13464L17.0907 1.19766C15.3333 0.184112 13.1591 0.184112 11.4017 1.19766H11.3935L2.84375 6.13464L15.6603 13.7281L21.055 8.94643V28.4982L25.6405 25.8662C27.3979 24.8527 28.485 22.9727 28.485 20.9374V17.6515Z" fill="url(#paint0_linear_1182_13009)"/>
<path d="M0 14.3505V20.9305V20.9386C0 22.9739 1.08712 24.8457 2.84448 25.8674L11.3943 30.8044C13.1517 31.818 15.3259 31.818 17.0833 30.8044H17.0914L25.8129 25.7693L12.8247 18.274L7.42999 23.0556V3.50391L2.84448 6.13587C1.08712 7.1576 0 9.0294 0 11.0647V14.3505Z" fill="url(#paint1_linear_1182_13009)"/>
<defs>
<linearGradient id="paint0_linear_1182_13009" x1="0.743327" y1="2.19282" x2="21.0605" y2="15.7792" gradientUnits="userSpaceOnUse">
<stop stop-color="#2D1B40"/>
<stop offset="1" stop-color="#E60039"/>
</linearGradient>
<linearGradient id="paint1_linear_1182_13009" x1="27.3589" y1="33.3432" x2="4.42415" y2="14.1478" gradientUnits="userSpaceOnUse">
<stop stop-color="#2D1B40"/>
<stop offset="0.2692" stop-color="#6E113E"/>
<stop offset="0.5125" stop-color="#A20A3C"/>
<stop offset="0.7231" stop-color="#C7053A"/>
<stop offset="0.8926" stop-color="#DE0139"/>
<stop offset="1" stop-color="#E60039"/>
</linearGradient>
</defs>
</svg>
