<svg width="218" height="40" viewBox="0 0 218 40" fill="none" xmlns="http://www.w3.org/2000/svg">
<g clip-path="url(#clip0_2046_4551)">
<path d="M34.85 22.0121V13.9621V13.9521C34.85 11.4621 33.52 9.17215 31.37 7.92215L20.91 1.88215C18.76 0.642148 16.1 0.642148 13.95 1.88215H13.94L3.47998 7.92215L19.16 17.2121L25.76 11.3621V35.2822L31.37 32.0621C33.52 30.8221 34.85 28.5221 34.85 26.0321V22.0121Z" fill="url(#paint0_linear_2046_4551)"/>
<path d="M0 17.9721V26.0221V26.0321C0 28.5221 1.33 30.8121 3.48 32.0621L13.94 38.1021C16.09 39.3422 18.75 39.3422 20.9 38.1021H20.91L31.58 31.9421L15.69 22.7721L9.09 28.6221V4.70215L3.48 7.92215C1.33 9.17215 0 11.4621 0 13.9521V17.9721Z" fill="url(#paint1_linear_2046_4551)"/>
<path d="M60.8201 26.3716H60.2101L55.0101 13.0616C54.5901 12.0216 53.4701 11.3616 52.1601 11.3616H48.9301C47.1901 11.3616 45.9201 12.4316 45.9201 13.9016L45.8501 28.7716H50.4101L50.4801 14.0316H51.0901L56.1501 27.0516C56.5601 28.1016 57.6401 28.7716 58.9701 28.7716H65.3701L65.4401 11.3516H60.8801L60.8201 26.3716Z" fill="#E50038"/>
<path d="M86.0001 26.1915L74.5601 26.2015L74.5701 21.5715L85.4701 21.5615C85.7701 21.5615 86.0101 21.3215 86.0101 21.0215V19.0215L74.5701 19.0315V13.8415L85.9801 13.8315C86.2801 13.8315 86.5201 13.5915 86.5201 13.2915V11.2715L71.3001 11.3015C69.9401 11.3015 69.1501 11.9715 69.1501 13.1315L69.1401 28.7515H86.5601V26.7415C86.5601 26.4415 86.3101 26.1915 86.0001 26.1915Z" fill="#E50038"/>
<path d="M216.92 26.192L205.48 26.202L205.49 21.572L216.39 21.562C216.69 21.562 216.93 21.322 216.93 21.022V19.022L205.5 19.032V13.842L216.91 13.832C217.21 13.832 217.45 13.592 217.45 13.292V11.292L202.23 11.302C200.87 11.302 200.08 11.972 200.08 13.132L200.07 28.752H217.49V26.742C217.48 26.442 217.23 26.192 216.92 26.192Z" fill="#E50038"/>
<path d="M109.86 14.4217H116.56L116.55 28.7617H121.97L121.98 14.4217H128.68L128.69 11.2617H109.86V14.4217Z" fill="#E50038"/>
<path d="M150.55 17.9822V15.4822C150.55 14.7322 150.38 13.9722 149.97 13.3322C149.11 11.9922 147.51 11.2422 145.64 11.2422C145.64 11.2422 145.64 11.2422 145.63 11.2422L131.08 11.2522L131.07 28.7522H136.5L136.51 22.1122H141.42L144.73 27.6122C145.13 28.2722 145.84 28.7522 146.6 28.7522H151.09L147.04 21.9422C149.16 21.4822 150.55 19.9222 150.55 17.9822ZM145.5 18.1322C145.5 18.9022 144.81 19.7522 143.85 19.7522L136.5 19.7622L136.51 13.8222L143.86 13.8122C144.33 13.8122 144.76 13.9522 145.06 14.2022C145.35 14.4422 145.51 14.7622 145.51 15.1322L145.5 18.1322Z" fill="#E50038"/>
<path d="M191.36 11.2119H191.35L179.3 11.2219C177.94 11.2219 177.15 11.8919 177.15 13.0519L177.14 28.7619H191.34C194.98 28.7619 196.99 26.9519 196.99 23.9019L197 15.9319C197 14.5519 196.6 13.4519 195.8 12.6519C194.83 11.7019 193.34 11.2119 191.36 11.2119ZM191.51 23.8319C191.51 25.1319 190.35 26.0719 188.76 26.0719L182.57 26.0819L182.58 13.7919L188.78 13.7819C189.66 13.7819 190.42 14.0619 190.92 14.5619C191.31 14.9519 191.52 15.4519 191.52 16.0119L191.51 23.8319Z" fill="#E50038"/>
<path d="M166.21 11.2422H164.03H161.12C159.59 11.2422 158.62 11.8622 158.18 13.1422L152.84 28.7722H152.72H158.15L160.28 22.5122H163.67H167.06L169.19 28.7722H174.62L169.16 13.1422C168.7 11.8622 167.74 11.2422 166.21 11.2422ZM163.66 19.9222H161.15L163.19 14.2222C163.27 14.0122 163.41 13.9022 163.66 13.8622C163.91 13.9022 164.05 14.0122 164.13 14.2122L166.17 19.9222H163.66Z" fill="#E50038"/>
<path d="M103.23 11.2617L98.84 16.7317L94.46 11.2817H89.21L96.16 20.0717L89.21 28.7617H94.67L98.84 23.4617L103.02 28.7617H108.48L101.52 20.0717L108.48 11.2617H103.23Z" fill="#E50038"/>
</g>
<defs>
<linearGradient id="paint0_linear_2046_4551" x1="0.91028" y1="3.09965" x2="25.7668" y2="19.7214" gradientUnits="userSpaceOnUse">
<stop stop-color="#2D1B40"/>
<stop offset="1" stop-color="#E60039"/>
</linearGradient>
<linearGradient id="paint1_linear_2046_4551" x1="33.4714" y1="41.2082" x2="5.4126" y2="17.7242" gradientUnits="userSpaceOnUse">
<stop stop-color="#2D1B40"/>
<stop offset="0.2692" stop-color="#6E113E"/>
<stop offset="0.5125" stop-color="#A20A3C"/>
<stop offset="0.7231" stop-color="#C7053A"/>
<stop offset="0.8926" stop-color="#DE0139"/>
<stop offset="1" stop-color="#E60039"/>
</linearGradient>
<clipPath id="clip0_2046_4551">
<rect width="217.49" height="38.08" fill="white" transform="translate(0 0.952148)"/>
</clipPath>
</defs>
</svg>
